<?xml version="1.0" encoding="utf-8"?>
<!-- Generator: Adobe Illustrator 27.1.0, SVG Export Plug-In . SVG Version: 6.00 Build 0)  -->
<svg version="1.1" baseProfile="basic" id="Layer_1"
	 xmlns="http://www.w3.org/2000/svg" xmlns:xlink="http://www.w3.org/1999/xlink" x="0px" y="0px" width="4000px" height="4000px"
	 viewBox="0 0 4000 4000" xml:space="preserve">
<g>
	<path fill="#822F51" d="M1605.3,933.7c1.1,4.2,1.9,8.1,2.4,12.4c-29-3.3-54.5,15-76.4,32.4c-16.5,13.1-31.6,29.6-34.2,51.4
		c-1.7,14.6,3.1,32.5,12.8,43.6c1.2,1.4,1.9,2,3.4,3.3c5.5-0.2,6.5-2.3,10.1-6.2c0.7-0.7,1.3-1.5,2-2.2
		c24.3-40.7,21.4-77.8,69.6-105l1.9,9.6c-42.5,24.1-40.7,68.5-68.4,102.6c-4.6,6.4-10.5,12.4-15.6,18.4
		c-8.3-12.5-16.4-24.6-20.5-39.2c-5.2-18.2-3.2-37.1,6.4-53.5c14.7-24.9,51.8-52.9,79-62c8-2.7,16.6-2.6,24.7-4.8
		C1603.4,934.3,1604.3,934,1605.3,933.7z"/>
	<path fill="#C38894" d="M3591.1,1071.6c11.4,14.7,18.3,38.1,26.2,55.4c12,25.7,24.2,51.4,36.5,77c-35.1-5.5-70.3-10.2-105.5-14
		l-75.4-8.8C3515.9,1149.5,3553.4,1109.3,3591.1,1071.6z"/>
	<path fill="#C38894" d="M3039.7,903.9l1.8,0.8c8.7,20.9,17.8,126.2,20.5,154.1c-32.1-12.1-63.2-26.5-94.5-40.5
		c-21.5-9.5-43-19.2-64.4-28.9C2949.9,963.9,2994.2,932,3039.7,903.9z"/>
	<path fill="#A8556D" d="M3105.9,1789.6c-0.3-1.1-0.6-2.2-0.9-3.3c-0.3-1.1-0.7-2.2-1.1-3.2c-0.4-1.1-0.8-2.1-1.3-3.2
		c-0.4-1-0.9-2.1-1.4-3.1c-0.5-1-1-2-1.6-3c-0.6-1-1.1-2-1.7-2.9c-0.6-1-1.2-1.9-1.9-2.8c-0.7-0.9-1.3-1.8-2-2.7
		c-0.7-0.9-1.4-1.8-2.2-2.6c-0.7-0.9-1.5-1.7-2.3-2.5c-0.8-0.8-1.6-1.6-2.4-2.4c-0.8-0.8-1.7-1.5-2.6-2.3c-0.9-0.7-1.8-1.4-2.7-2.1
		c-0.9-0.7-1.8-1.3-2.8-2c-0.9-0.6-1.9-1.2-2.9-1.8c-1-0.6-2-1.1-3-1.7c-12.3-6.6-26.4-9.4-40.4-9.2c-23.2,3.5-42.4,11.7-57,31
		c-0.8,1-1.5,2-2.2,3c-0.7,1-1.4,2.1-2,3.2c-0.6,1.1-1.3,2.2-1.9,3.3c-0.6,1.1-1.2,2.2-1.7,3.3c-0.5,1.1-1,2.3-1.5,3.4
		c-0.5,1.2-0.9,2.3-1.3,3.5c-0.4,1.2-0.8,2.4-1.2,3.6c-0.4,1.2-0.7,2.4-1,3.6c-0.3,1.2-0.6,2.4-0.8,3.7c-0.2,1.2-0.4,2.5-0.6,3.7
		c-0.2,1.2-0.3,2.5-0.4,3.7c-0.1,1.2-0.2,2.5-0.2,3.7c0,1.2,0,2.5,0,3.7c0,1.2,0.1,2.5,0.2,3.7c0.1,1.2,0.2,2.5,0.4,3.7
		c0.2,1.2,0.3,2.5,0.6,3.7c0.2,1.2,0.5,2.3,0.8,3.5c0.3,1.2,0.6,2.3,0.9,3.4c0.3,1.1,0.7,2.3,1.1,3.4c0.4,1.1,0.8,2.2,1.3,3.3
		c0.5,1.1,0.9,2.2,1.4,3.3c0.5,1.1,1,2.1,1.6,3.2c0.6,1,1.1,2.1,1.8,3.1c0.6,1,1.2,2,1.9,3s1.4,1.9,2.1,2.9c0.7,0.9,1.5,1.9,2.2,2.8
		c0.8,0.9,1.5,1.8,2.3,2.7c0.8,0.9,1.6,1.7,2.5,2.5c0.8,0.8,1.7,1.6,2.6,2.4c0.9,0.8,1.8,1.5,2.7,2.3c0.9,0.7,1.9,1.5,2.8,2.1
		c1,0.7,1.9,1.4,2.9,2c14.5,9.4,29.6,12.3,46.6,12.8c23.7-5,42.8-14.1,56.2-35.5C3107,1832,3111,1809.6,3105.9,1789.6z
		 M3085.6,1805.1c-2.1,7.9-7.4,11.1-14.1,14.5c-2-0.1-4-0.2-6-0.5c-11.3-1.2-20.2-5.9-27.1-15.2c-3.9-5.3-5.8-11.4-4.2-17.9
		c2-8.2,7.4-12.2,14.2-16.5c3.1,0,3-0.1,6.5,0.3c11.2,1,19.3,6.4,26,15.3C3085.1,1790.8,3087.5,1798.1,3085.6,1805.1z"/>
	<path fill="#A8556D" d="M3322.4,1788.8c-5.8-17.8-18.9-31.7-35.8-39.5c-15.2-7-30.6-8.1-47.1-6.9c-23.8,7.5-44.5,18-56.1,41.6
		c-8.3,16.9-9.8,37.3-3.3,55.1c7,19.3,22.6,34.3,41.3,42.1c13.9,5.7,27.5,6.7,42.3,5.4c22.6-6.4,40.5-16.9,52.3-38.1
		C3325.9,1830.6,3328.8,1808.3,3322.4,1788.8z M3299.8,1813.3c-3.2,5.9-8.6,7.5-14.5,9.7l-1.1-0.1c-4.5-0.6-9.4-0.9-13.6-2.6
		c-8.7-3.5-17.1-13.4-20.1-22.3c-1.8-5.3-1.6-11.3,1.3-16.1c4.2-7,10.6-8.5,18-10.1c3.9,0.6,7.8,1.2,11.4,2.7
		c8,3.2,15.6,12.2,18.9,19.9C3302.8,1800.5,3303.1,1807.3,3299.8,1813.3z"/>
	<path fill="#C38894" d="M3070,898.9c74,16.4,149.5,42.8,222.2,65.3c-21.8,9.3-43.1,19.4-64.5,29.6c-45.6,23.9-92.9,45.3-139.1,68
		C3085.2,1007.7,3075.5,953,3070,898.9z"/>
	<path fill="#EEC785" d="M1396.4,2466.3c-56.3-1.2-112.9,0.1-169.3,0.2l-282.6,0l-114.6,0.4c-21.6,0.1-45,2.4-66.4-1.1
		c-4-2.4-6.6-5.5-7.9-10.1c-1.3-4.8,0.4-7.2,2.5-11.3c5.1-3.9,9.1-5.2,15.5-5.5c22.3-1,45.4,0.2,67.8,0.1l181.7-0.1
		c131,0.1,261.8-1.6,392.8,1.1L1396.4,2466.3z"/>
	<path fill="#C38894" d="M3338.8,979.6c30.5,7.4,61.1,19.2,91.1,28.6c48.6,15.1,97.3,29.8,146,44.1l-62.7,57.2
		c-21.7,20-43.1,40.5-65.7,59.6C3413.8,1104.4,3377.5,1041.3,3338.8,979.6z"/>
	<path fill="#EEC785" d="M3538.2,1489.6c3.2,4.5,4,10.1,5.4,15.4c17.4,62.4,48.9,88.4,103.2,118.9c-64.4,34.9-86.6,71.9-108.5,140.5
		c-6-5.1-8.6-17.6-11.3-25.2c-19.6-54.8-46.9-84.9-96.6-114.9c11.6-10.7,26-18.8,38.7-28.2C3507.3,1568,3522.9,1533.1,3538.2,1489.6
		z"/>
	<path fill="#C38894" d="M3309.2,984.1c10.9,5.2,98.1,167,110.1,189.7c-47.2-13.4-94-29.7-141-44.1
		c-54.3-16.9-108.4-34.3-162.3-52.3C3180.2,1049.9,3248.6,1018.8,3309.2,984.1z"/>
	<path fill="#A8556D" d="M3029.3,1937.5c5.7-0.3,11.9-0.9,17.4,0.3c10,2.2,18.5,8.8,23.7,17.5c5.1,8.5,6.2,17.6,6.9,27.2
		c2.4,29.9,3.7,263.6-2,281.4c-4.1,12.9-14.6,20.3-26.4,25.6c-7.4,0-14.8,0.2-22-1.7c-10.2-2.8-18.9-8.9-23.8-18.4
		c-4.1-7.8-4.5-18.6-4.9-27.3c-1.6-33.4-2.9-259.4,3.4-277.7C3006.6,1950.6,3016.7,1943.7,3029.3,1937.5z"/>
	<path fill="#A8556D" d="M3248.4,1937.6c7.1-0.3,13.4,0.3,20.1,2.7c10.2,3.7,20,10.8,24.4,21c6.3,14.4,6.6,286.1-0.1,303.3
		c-5.2,13.3-15.3,19.8-28,25c-7.9,0.2-15.2,0.5-22.8-2.2c-10.8-3.8-19.8-11.6-24-22.4c-6-15.7-4.1-256.3-2.6-284.1
		c0.4-6.7,0.9-13.1,3.8-19.3C3225.3,1948.8,3235.6,1942.6,3248.4,1937.6z"/>
	<path fill="#EEC785" d="M532,2321.6c10.2,13.4,13.4,37.3,20.9,52.9c30,62.8,64.7,81.3,118.4,120.1c-15.8,12.6-34,22.2-50.4,34
		c-47.1,33.6-66.1,78.4-85.3,131c-4.2-1.4-4-4.6-5.7-8.6c-20-49.8-41.7-95.9-86.2-128.6c-15.2-11.2-31.9-20.6-47.6-31.1
		c17.5-13.3,36.5-24.7,54.2-37.9C495.1,2419.7,513.8,2372.9,532,2321.6z"/>
	<path fill="#EEC785" d="M1926.1,1639.2c27.6,1.2,55.8-0.4,83.5-0.7l160.5-0.5l616.5-0.2l187.2-0.8c30.7-0.3,65.9-4,96,0.5
		c1.5,9.7,5.2,18.6,7.7,28.1c-135.5,2.4-271,3.1-406.5,2.1l-734.2,0.1C1934.1,1657.9,1930,1648.7,1926.1,1639.2z"/>
	<path fill="#C38894" d="M3069.7,1637.5l-0.6-2c-9.2-34.1-14.4-69.5-22.9-103.8c-27.6-114.5-59.8-227.8-96.7-339.6
		c-14.4-42.4-28.4-85.5-44.8-127.2c-5.2-13.1-22.1-39.1-21.5-52.1l3.1-0.2c29.9,15.2,61.7,26.9,92.7,39.7c28,11.5,55.6,24,84,34.5
		c2.3,43.9,2.5,88,3.9,132l6.5,233.2c0.8,43.8,2.4,87.7,2.8,131.5c0.1,13,1.4,26.2,0.9,39.1c-0.2,5.1,0.2,9.8-3.3,13.9
		L3069.7,1637.5z"/>
	<path fill="#C38894" d="M3448.1,1206.5c23.8,0.7,48.8,5.7,72.5,8.4c44,5.1,88.1,9.5,132.3,13.2l-418.2,345.5
		c-14.1,12.1-106,91.9-114.5,93.4c11-14.1,24.1-26.2,35-40.6c36.8-48.5,69.8-99.7,104.8-149.5
		C3323.5,1387.4,3386.2,1297.2,3448.1,1206.5z"/>
	<path fill="#A8556D" d="M1347.1,1773.4c12.2,0.3,25.1,3.9,33.9,12.8c7.6,7.6,9.3,17.5,10.5,27.8c4.2,36.8,1.2,76.8,1.1,113.9
		c-0.3,92.1-3.4,184.9-0.4,276.9c34.3-0.1,185.9-4.9,206.3,2.5c10.9,4,20.1,12.1,24.5,22.9c3.8,9.1,3.9,19.4-0.4,28.3
		c-6,12.4-15,18.4-27.7,22.6c-43.4,1.1-87,0.1-130.4,0.6c-31.6,0.3-64.9,2.7-96.4-0.1c-10.3-0.9-20.5-2.9-30.1-6.9
		c-11-4.6-18.7-15.3-22.8-26.2c-4.8-12.8-4.3-384.7-2.6-427.7c0.4-8.8,0.1-19.1,4.2-27C1323.1,1781.7,1334.7,1777,1347.1,1773.4z"/>
	<path fill="#822F51" d="M1493.4,2698.9c21.1-11.3,110.4-12.6,138.5-14c-11.4,18.3-22.9,36.6-33.1,55.5
		c-28.7,47.1-60,93.1-90.1,139.4c-28.6,43.9-60.7,87.7-76.6,138.1c-9.4,29.7-17.9,73.1,0,101c8.7,13.6,21.8,24.3,33.4,35.3
		c10.2,9.7,21.4,20.4,27.6,33.3c4.4,9.1,6.1,22.4,1.8,31.9c-2.7,5.8-6.8,9.5-13,11.1c-27.7,7.5-97.7-25.3-122.5-39.5
		c-72.7-41.5-19.5-91.2-37-156.6c-20.6,29.1-34.9,62.3-50.2,94.4c-6.5-2.9-12.4-6.1-18.5-9.8c25.8-36,41.5-77.8,49.3-121.1
		c3.1-17.3,8.6-36.6,24.3-46.7c17.4-11.2,37.3-6.5,56-2.1C1432.1,2898.2,1471.7,2767.9,1493.4,2698.9z"/>
	<path fill="#822F51" d="M1875.3,2624.9c26.4-11.4,50.8-25.8,74.3-42.2c15.2-10.7,49.5-43.2,64.1-47.8c2.1,29.6,7.5,59.5,11.7,88.9
		l22,152.4l24.5,170c5.9,40.6,8.1,89.6,24.1,127.4c10.1,23.8,57.5,78.7,76.7,95.4c14.2,12.3,30.4,21.5,48.5,26.8
		c20.4,5.9,83.9,2.6,86.9,30.1c1.1,10.3-1.8,19.9-8.6,27.8c-22.3,26.3-68.5,28.7-100.2,30.2c-26.4,1.3-54.7,1.8-80.3-5.8
		c-30.2-31.8-29.9-63.7-70.1-92.4c-8.4,8.6,17.9,77.4,14.1,96.3c-0.6,2.7-1.7,3.8-4.4,4.7c-4.6,1.7-11.3,1.9-15.8-0.1
		c-11.1-22.6-27.6-90.3-34.5-117.3c-10-43.1,6.2-68.3,26.3-104.4c-17.3-85.1-60.5-185-94.6-265.9c-15-35.6-31.5-71.3-43.1-108.1
		C1888.4,2669.3,1882,2647.1,1875.3,2624.9z"/>
	<path fill="#C38894" d="M3094.1,1097.5c58.7,20,117.9,38.4,177,57.5c48.7,15.7,97.3,32.5,146.8,45.8l-183.2,263.2
		c-44.8,61.9-87,126.1-130.8,188.7C3101.6,1467.6,3098.3,1282.6,3094.1,1097.5z"/>
	<path fill="#EEC785" d="M2113.2,578.8c22-1,44-1.5,66-1.5c22,0,44,0.6,66,1.7c22,1.1,43.9,2.7,65.8,4.8c21.9,2.1,43.8,4.8,65.5,7.9
		c21.8,3.2,43.5,6.8,65.1,11c21.6,4.2,43.1,8.9,64.5,14.1s42.6,10.9,63.8,17.1c21.1,6.2,42.1,12.9,62.9,20.1
		c21.8,7.5,127.1,44.4,132.6,61.2c1.6,5,0.3,7.3-1.7,11.7c-4.4,2.6-5.8,3.4-11.1,2.9c-12.3-1.1-47-19.4-60.4-24.6
		c-340.1-133-697.9-125.2-1043.4-16c-13,4.2-25.9,8.6-38.8,13.1c-12.9,4.5-25.7,9.2-38.5,14c-12.8,4.8-25.5,9.8-38.2,14.9
		c-12.7,5.1-25.2,10.4-37.8,15.9c-12.5,5.4-25,11-37.4,16.8c-12.4,5.7-24.7,11.6-37,17.7c-12.2,6-24.4,12.2-36.5,18.6
		s-24.1,12.8-36.1,19.5c-11.9,6.6-23.8,13.4-35.6,20.3c-11.8,6.9-23.5,14-35.1,21.2c-11.6,7.2-23.1,14.6-34.5,22.1
		c-11.4,7.5-22.8,15.1-34,22.9s-22.4,15.7-33.4,23.7c-11,8-22,16.2-32.8,24.5s-21.6,16.7-32.2,25.3c-10.6,8.6-21.2,17.3-31.6,26.1
		c-10.4,8.8-20.7,17.8-31,26.8c-10.2,9.1-20.3,18.3-30.3,27.6c-10,9.3-19.9,18.8-29.6,28.3c-9.8,9.6-19.4,19.2-28.9,29
		c-9.5,9.8-18.9,19.7-28.2,29.7c-9.3,10-18.4,20.2-27.5,30.4c-9,10.2-17.9,20.6-26.7,31.1c-8.8,10.5-17.4,21-25.9,31.7
		c-8.5,10.7-16.9,21.5-25.2,32.3c-8.3,10.9-16.4,21.9-24.4,32.9c-8,11.1-15.8,22.2-23.6,33.5c-7.7,11.3-15.3,22.6-22.7,34.1
		c-7.4,11.5-14.7,23-21.9,34.6c-7.2,11.6-14.2,23.3-21.1,35.1c-6.9,11.8-13.6,23.7-20.2,35.7c-6.6,12-13,24-19.3,36.1
		c-65.2,131.2-114.9,262.4-141.3,406.8c-5.6,29.7-10.3,59.6-14.2,89.5c-2.4,19-2.1,58.1-8.4,74.2c-1.6,4.2-5.4,7.5-9.7,8.8
		c-5.6,1.7-7.3,0.9-12.3-1.3c-5.4-6.3-7-12.8-7.5-21c-2.4-40.2,12-109.7,19.5-150.4c54.3-291.5,199.6-562.7,397.3-782.5
		c8.4-9.2,16.8-18.4,25.4-27.4c8.6-9.1,17.2-18,26-26.9c8.8-8.9,17.6-17.6,26.6-26.3c8.9-8.7,18-17.2,27.1-25.7
		c9.1-8.5,18.4-16.8,27.7-25.1c9.3-8.3,18.7-16.4,28.2-24.5c9.5-8.1,19.1-16,28.8-23.9c9.7-7.8,19.4-15.6,29.3-23.2
		c9.8-7.6,19.8-15.2,29.8-22.6c10-7.4,20.1-14.7,30.3-21.9s20.4-14.3,30.8-21.2c10.3-7,20.7-13.8,31.2-20.6
		c10.5-6.7,21-13.4,31.7-19.9c10.6-6.5,21.3-12.9,32.1-19.2c10.8-6.3,21.6-12.4,32.5-18.5c10.9-6,21.9-11.9,32.9-17.7
		c11-5.8,22.1-11.5,33.3-17c11.2-5.5,22.4-11,33.6-16.3c11.3-5.3,22.6-10.5,34-15.5c11.4-5,22.8-10,34.3-14.8
		c11.5-4.8,23-9.5,34.6-14c11.6-4.5,23.2-9,34.9-13.2c11.7-4.3,23.4-8.4,35.2-12.5c11.8-4,23.6-7.9,35.5-11.7
		c11.9-3.8,23.8-7.4,35.7-10.9c12-3.5,23.9-6.9,36-10.1c12-3.2,24.1-6.4,36.2-9.3c12.1-3,24.2-5.8,36.4-8.5
		c12.2-2.7,24.3-5.3,36.6-7.7c12.2-2.4,24.5-4.8,36.7-6.9c12.3-2.2,24.6-4.2,36.9-6.1c12.3-1.9,24.6-3.7,37-5.3
		C1993.3,586,2052.8,582,2113.2,578.8z"/>
	<path fill="#C38894" d="M1772,1607.5c45.1-10.9,107.6-17.3,152.6-3c-0.4,11.6-1.4,23.4,1.5,34.7c4,9.5,8,18.7,10.6,28.7
		c3.9,19.3,6.9,38.4,9.4,58c-18.8,1.2-36.8,4.4-49.9,19.3c-13.8,15.8-56.7,119.9-69.9,148.2c-31.9,69.4-65,138.2-99.1,206.5
		c-19.4,38.8-49.8,89.2-62.1,129.3c-8.8-22.4-20.6-43.3-44-53c-16.8-7-35.4-6.1-53.2-6.1c26.8-65.8,48.7-130.9,67.1-199.5
		c19.6-73.1,32.6-151.4,66.8-219.2c8.3-16.5,38.8-59.5,41.5-73c6.3-9,15.2-12.4,19-23.8c0.5-0.8,1-1.6,1.5-2.3
		C1773.3,1636.7,1776,1625.4,1772,1607.5z"/>
	<path fill="#EEC785" d="M691.7,1667.6c-11.7,34.1-21.6,68.7-32.4,103.1c-4,12.8-8.4,24.7-21,31.2c-3.5,0.2-5.1,0.7-8.3-1
		c-3.8-2-7-4.9-7.8-9.4c-3.8-19.9,12-55.4,18.7-74.7c43.5-125.7,97.2-249.2,171.2-360.2c49.5-74.3,102.8-144.8,163.8-210
		c211.8-226.3,501.3-391,805.7-450.7c13.9-2.7,27.8-5.2,41.8-7.4c14-2.2,28-4.3,42-6.1c14-1.8,28.1-3.3,42.2-4.7
		c14.1-1.3,28.2-2.4,42.3-3.3c14.1-0.9,28.3-1.5,42.4-1.9c14.2-0.4,28.3-0.6,42.5-0.5c14.2,0.1,28.3,0.4,42.5,0.9
		c14.1,0.5,28.3,1.3,42.4,2.3c14.1,1,28.2,2.2,42.3,3.7c14.1,1.4,28.1,3.1,42.2,5c14,1.9,28,4,42,6.4c14,2.4,27.9,5,41.7,7.8
		c13.9,2.8,27.7,5.9,41.5,9.1c13.8,3.3,27.5,6.8,41.1,10.5c13.7,3.7,27.2,7.7,40.8,11.8c13.5,4.2,27,8.6,40.4,13.2
		c23.5,8.1,83.7,27.1,101.7,41.4c4.2,3.3,4.1,7.9,4.6,12.8c-1.4,3.4-1.7,5.6-5.7,6.7c-14.9,4.3-77.9-23.8-96-30.2
		c-328.3-116.8-682.4-90.9-996.2,58.4c-9.4,4.4-18.8,8.9-28.1,13.5c-9.3,4.6-18.6,9.3-27.8,14.1c-9.2,4.8-18.4,9.7-27.5,14.7
		c-9.1,5-18.2,10.1-27.2,15.3c-9,5.2-18,10.5-26.9,15.8c-8.9,5.4-17.8,10.8-26.6,16.4c-8.8,5.6-17.5,11.2-26.2,16.9
		c-8.7,5.7-17.3,11.6-25.9,17.5c-8.6,5.9-17,11.9-25.5,18c-8.4,6.1-16.8,12.3-25.1,18.5c-8.3,6.3-16.5,12.6-24.7,19.1
		c-8.2,6.4-16.3,13-24.3,19.6c-8,6.6-16,13.3-23.9,20.1c-7.9,6.8-15.7,13.6-23.5,20.6c-7.7,6.9-15.4,14-23,21.1
		c-7.6,7.1-15.1,14.3-22.6,21.5c-7.5,7.3-14.8,14.6-22.1,22c-7.3,7.4-14.5,14.9-21.7,22.4c-7.1,7.6-14.2,15.2-21.2,22.9
		c-7,7.7-13.9,15.5-20.7,23.3c-6.8,7.9-13.6,15.8-20.2,23.8c-6.7,8-13.2,16.1-19.7,24.2c-6.5,8.1-12.9,16.3-19.2,24.6
		c-6.3,8.3-12.6,16.6-18.7,25c-6.1,8.4-12.2,16.8-18.2,25.4c-6,8.5-11.9,17.1-17.6,25.7c-5.8,8.6-11.5,17.3-17.1,26.1
		c-5.6,8.8-11.1,17.6-16.6,26.5c-5.4,8.9-10.8,17.8-16,26.8c-5.2,9-10.4,18-15.4,27.1c-5.1,9.1-10,18.2-14.9,27.4
		c-4.9,9.2-9.6,18.4-14.3,27.7c-19.9,40.6-40,82.1-55.1,124.7l849.3,0.1c1.9,8.9,3.9,17.3,7.2,25.8c-31.8,7.6-70.1,3.7-102.8,3.6
		l-157.7-0.4L691.7,1667.6z"/>
	<path fill="#A8556D" d="M942.5,1756.4c16.1-1.4,32.4-0.3,48.3,1.8c51.8,6.5,125.7,31.9,158.2,75.5c7.2,9.6,10.7,20.6,8.4,32.6
		c-2.1,11-9.4,22.8-18.9,28.9c-32.4,21-72-28.2-98.2-43.1c-15.1-8.5-32.3-12.7-49.2-15.9c-3.2-0.6-6.3-1.1-9.5-1.6
		c-3.2-0.4-6.4-0.8-9.6-1.1c-3.2-0.3-6.4-0.5-9.6-0.6c-3.2-0.1-6.4-0.2-9.7-0.1c-3.2,0-6.4,0.1-9.7,0.3c-3.2,0.2-6.4,0.5-9.6,0.8
		c-3.2,0.3-6.4,0.8-9.6,1.3c-3.2,0.5-6.4,1.1-9.5,1.8c-3.2,0.7-6.3,1.4-9.4,2.2c-3.1,0.8-6.2,1.7-9.3,2.7c-3.1,1-6.1,2-9.1,3.1
		c-3,1.1-6,2.3-9,3.6c-3,1.3-5.9,2.6-8.8,4c-2.9,1.4-5.8,2.9-8.6,4.4c-2.8,1.5-5.6,3.2-8.4,4.8c-2.7,1.7-5.5,3.4-8.1,5.2
		c-44.5,30.5-76.7,78-85.9,131.4c-8.5,49.3,4,96.1,33.1,136.5c32.6,45.3,79.9,71.1,134.5,80c51.8,8.5,107.5-1.7,150.5-32.8
		c33.7-24.4,54.6-59.3,61.2-100.1c-33.8-0.6-118.7,6-146.2-3.1c-5.8-1.9-9.9-5.7-14.2-9.9c-2.7-4.7-4.7-8.9-5.7-14.2
		c-0.2-1.1-0.4-2.2-0.4-3.3c-0.1-1.1-0.1-2.2-0.1-3.3c0-1.1,0.1-2.2,0.2-3.3c0.1-1.1,0.3-2.2,0.6-3.2s0.5-2.1,0.9-3.2
		c0.3-1,0.8-2.1,1.2-3.1c0.5-1,1-2,1.5-2.9c0.6-0.9,1.2-1.9,1.8-2.7c6.8-9.2,14.5-11.7,25.4-13.2c24.2-3.3,148.8-2.7,172.5,1
		c7.4,1.2,14.8,4.7,20.5,9.4c11.4,9.4,17.2,22.2,18.6,36.7c4.4,45.4-17.2,99.1-45.2,134.1c-43,53.7-109.6,86.3-177.6,93.4
		c-79.1,8.3-156.3-13.3-218-63.4c-52.7-42.7-88.9-101.7-96-169.9c-7.3-70.4,12.3-140.5,57.5-195.2
		C786.2,1800.2,861.9,1763.7,942.5,1756.4z"/>
	<path fill="#A8556D" d="M2206.5,2237.7c-8.3-24.9-22.4-49.9-33.2-73.9l-73.7-161.8l-67.8-146.4c-12.2-26.5-23-56.3-37.9-81.2
		c-4.3-7.2-10.7-11.3-18.8-13c-7.5-1.6-15.1-1.3-22.8-1.1c-8.7,1.4-18.9,2.5-24.6,10.3c-17.5,24.1-44.1,96-59.1,127.3
		c-34.3,71.8-69.2,143.4-104.6,214.7c-20.4,40.7-53.8,97-65.7,139.3c5.6,12.6,17.1,29,30.7,34c8.2,3.1,17.1,2.2,24.8-1.7
		c25.5-12.7,63.7-101.8,77.8-130l128.6-0.4c41-0.2,82-0.7,123-0.3c13.6,29.6,39,94.9,56.8,118.7c4.9,6.6,11,12.1,18.7,15.1
		c8.8,3.5,18.5,2.9,26.8-1.4c1.3-0.7,2.6-1.4,3.8-2.2c1.2-0.8,2.4-1.7,3.5-2.6c1.1-0.9,2.2-1.9,3.2-2.9c1-1,2-2.1,2.9-3.3
		c0.9-1.1,1.8-2.3,2.5-3.6c0.8-1.2,1.5-2.5,2.2-3.8c0.7-1.3,1.2-2.6,1.7-4c0.5-1.4,1-2.8,1.3-4.2
		C2208.4,2252.7,2208.7,2244.3,2206.5,2237.7z M1962,2074l-92.4,0.2c31.5-61.7,59.3-125.9,88.5-188.7
		c12.1,7.5,78.9,164.6,89.4,188.6L1962,2074z"/>
	<path fill="#EEC785" d="M3371.1,2438.8c12.7-38.2,25.4-76.3,35.1-115.4c4.3-17.6,5.9-36.5,10.7-53.7c1.3-4.5,4.9-9.4,9.5-10.9
		c4.5-1.5,9-1.1,13.1,1.4c3.8,2.4,5.6,7.2,5.8,11.5c1.5,31.7-13.3,71.9-21.7,102.4c-59,215.1-188.7,431.7-344.5,590.7
		c-276.3,282-608.5,461.4-1010.2,465.3c-195.5,1.9-389.6-29.5-568.5-110.6c-18.7-8.5-61.1-24.5-73.7-37.1c-2.9-2.9-3.4-8.3-2.7-12.2
		c0.6-3.8,1.9-5.7,4.2-8.6c5.6-2.5,9.3-2.4,15-0.1c23.5,9.5,46.5,22.7,69.7,33.2c42.3,19.1,86.8,35.7,131.1,49.6
		c275.1,86.5,596.1,78.6,865.1-26.2c95-37,189.4-85,274.4-141.4c33.8-22.4,66-47.8,97.8-73c191.2-151.7,353.9-346.3,452.2-570.9
		c9.3-21.3,18.1-42.8,26.4-64.6c-59.2-5.4-121.2-1.9-180.8-2l-352.7,0.3l-532.8-0.3c-94.5-0.2-189.2-3.8-283.7-0.5l-2.9-28.7
		l866.2-0.9l308.2,0.4C3244.7,2436.9,3308.1,2436,3371.1,2438.8z"/>
	<path fill="#A8556D" d="M2786.6,1779.6c9.6,0.8,18.5,2.8,26.5,8.3c13.4,9.1,16.8,22.1,19.8,37c5.6,27.9,8.9,56.6,13.3,84.7
		l25.2,161.7l18.5,120.4c2.8,19.3,7.2,39.9,7.8,59.4c0.2,8-1.8,14.9-6.5,21.4c-0.9,1.2-1.8,2.3-2.7,3.4c-1,1.1-2,2.1-3.1,3.1
		c-1.1,1-2.2,1.9-3.4,2.7c-1.2,0.9-2.4,1.6-3.7,2.4c-1.3,0.7-2.6,1.4-3.9,2c-1.3,0.6-2.7,1.1-4.1,1.6c-1.4,0.4-2.8,0.8-4.2,1.1
		c-1.4,0.3-2.9,0.5-4.3,0.7c-10.7,1.1-20.3-1.9-28.5-8.8c-7.3-6.1-12-14-14.4-23.2c-7.6-29.3-8.9-63.1-13.5-93.2
		c-11.1-73-23.7-145.3-31.7-218.7c-31.4,65.1-61.7,131-92.1,196.6c-13.9,30-25.8,65-43.9,92.4c-5.7,8.6-13.9,15.2-23.2,19.6
		c-1.9,0.9-3.8,1.6-5.8,2.3c-2,0.7-4,1.2-6,1.7c-2,0.5-4.1,0.8-6.1,1.1c-2.1,0.3-4.1,0.4-6.2,0.4c-2.1,0-4.2,0-6.2-0.2
		c-2.1-0.2-4.1-0.4-6.2-0.8c-2-0.4-4.1-0.9-6.1-1.4c-2-0.6-4-1.3-5.9-2.1c-8.8-3.7-16.3-9.5-21.7-17.4c-17-24.8-27.1-57.7-39.2-85.3
		c-30.6-69.2-60.4-138.8-89.3-208.8c-4.9,25.8-10.2,51.5-15.8,77.2l-30.6,166.2c-4.8,24.9-8,52.9-17.3,76.5
		c-3.2,8-7.2,14.5-14.5,19.3c-9.5,6.3-21.9,7.9-32.8,4.8c-8.8-2.5-17-8.1-21.5-16.2c-5.3-9.5-5.6-20.6-4.7-31.2
		c1.9-22,8.6-45,13.1-66.7c7.2-36,14-72,20.4-108.1l31.8-176.6c4.3-23.6,6.3-50.3,13.8-72.9c4.3-13,11.9-25,24.7-30.9
		c10.6-4.8,24.8-5.5,35.7-1.3c9.9,3.8,17.3,11.4,22.6,20.4c20,33.5,41.9,93.5,57.4,131.1l93.6,226.2
		c39.6-80.7,75.5-166.4,111.4-249.1c15.2-34.9,31.1-83.8,51.9-114.9C2762.6,1786,2773.8,1782.2,2786.6,1779.6z"/>
	<path fill="#EEC785" d="M1980,520.2c0.6,0,1.1-0.1,1.7-0.1c28.7-1.9,58-1,86.7-0.9c189.6,0.9,372.9,36.6,551.7,98.4
		c13.7,4.7,75.3,24.2,83,32.9c3.5,4,4.2,8.1,4.4,13.2c-7.1,11.1-26.2,3.5-36.3,0c-112-39-218.7-66.5-336.1-83.5
		c-9.9-1.5-19.8-3-29.8-4.3c-9.9-1.4-19.9-2.7-29.8-3.9c-10-1.2-19.9-2.3-29.9-3.4c-10-1-20-2-30-2.9c-10-0.9-20-1.7-30-2.4
		c-10-0.7-20-1.3-30-1.9c-10-0.5-20-1-30.1-1.4c-10-0.4-20.1-0.7-30.1-0.9c-10-0.2-20.1-0.3-30.1-0.4c-10,0-20.1,0-30.1,0.1
		c-10,0.1-20.1,0.3-30.1,0.6c-10,0.3-20.1,0.7-30.1,1.1c-10,0.5-20,1-30.1,1.6c-10,0.6-20,1.3-30,2.1c-10,0.8-20,1.7-30,2.6
		c-10,1-20,2-29.9,3.1c-10,1.1-19.9,2.3-29.9,3.6s-19.9,2.7-29.8,4.1c-9.9,1.5-19.8,3-29.7,4.6c-9.9,1.6-19.8,3.3-29.7,5.1
		c-9.9,1.8-19.7,3.7-29.6,5.6c-9.8,2-19.7,4-29.5,6.1c-9.8,2.1-19.6,4.3-29.4,6.6c-9.8,2.3-19.5,4.6-29.3,7.1
		c-9.7,2.4-19.4,5-29.1,7.6c-9.7,2.6-19.4,5.3-29,8.1c-9.6,2.8-19.3,5.6-28.9,8.5c-9.6,2.9-19.2,5.9-28.7,9
		c-9.5,3.1-19.1,6.3-28.6,9.5c-9.5,3.2-19,6.6-28.4,10c-9.4,3.4-18.8,6.9-28.2,10.4c-9.4,3.6-18.7,7.2-28,10.9
		c-13.1,5.1-26.2,10.4-39.1,15.9c-13,5.5-25.9,11.1-38.7,16.9c-12.8,5.8-25.6,11.7-38.3,17.9c-12.7,6.1-25.3,12.4-37.8,18.8
		c-12.5,6.4-25,13-37.3,19.7c-12.4,6.7-24.6,13.6-36.8,20.7c-12.2,7-24.3,14.2-36.3,21.6c-12,7.3-23.9,14.8-35.8,22.5
		c-11.8,7.6-23.6,15.4-35.2,23.4c-11.6,7.9-23.2,16-34.6,24.2c-11.4,8.2-22.8,16.6-34,25.1c-11.2,8.5-22.3,17.1-33.3,25.9
		c-11,8.8-21.9,17.7-32.7,26.8c-10.8,9.1-21.5,18.2-32,27.6c-10.6,9.3-21,18.8-31.3,28.3c-10.3,9.6-20.5,19.3-30.6,29.1
		c-10.1,9.8-20,19.8-29.9,29.9c-9.8,10.1-19.5,20.3-29.1,30.6c-9.6,10.3-19,20.8-28.3,31.3c-9.3,10.6-18.5,21.2-27.5,32
		c-9,10.8-18,21.7-26.7,32.7c-8.8,11-17.4,22.1-25.9,33.4c-8.5,11.2-16.9,22.6-25.1,34c-8.2,11.4-16.3,23-24.2,34.6
		c-7.9,11.6-15.7,23.4-23.3,35.2c-7.6,11.8-15.1,23.8-22.5,35.8c-7.3,12-14.5,24.1-21.6,36.3c-7,12.2-13.9,24.5-20.6,36.9
		c-6.7,12.4-13.3,24.8-19.7,37.4c-6.4,12.5-12.7,25.1-18.8,37.8c-6.1,12.7-12,25.5-17.8,38.3c-5.8,12.8-11.4,25.7-16.9,38.7
		c-50.3,110-90.2,282.2-104.9,402.9c-7.7,63.8-12.2,127.8-13.4,192.1c-0.3,15.1,3.5,67.9-3.2,76.9c-3.8,5.1-9,8.5-15.4,9.4
		c-6,0.8-12.5-0.7-16.9-5c-5.8-5.7-7.1-14.6-7.5-22.3c-3.4-60.2-0.1-122.8,4.6-182.9c0.9-11.3,2-22.5,3.1-33.8
		c1.2-11.2,2.4-22.5,3.8-33.7c1.4-11.2,2.9-22.4,4.5-33.6c1.6-11.2,3.4-22.4,5.2-33.5c1.8-11.2,3.8-22.3,5.9-33.4
		c2.1-11.1,4.3-22.2,6.6-33.3c2.3-11.1,4.7-22.1,7.3-33.1c2.5-11,5.2-22,7.9-33c2.8-11,5.6-21.9,8.6-32.8c3-10.9,6.1-21.8,9.3-32.6
		c3.2-10.8,6.5-21.7,10-32.4c3.4-10.8,7-21.5,10.6-32.2c3.7-10.7,7.4-21.4,11.3-32c3.9-10.6,7.9-21.2,11.9-31.8
		c4.1-10.5,8.3-21,12.6-31.5c4.3-10.5,8.7-20.9,13.2-31.2c4.5-10.4,9.1-20.7,13.9-31c4.7-10.3,9.6-20.5,14.5-30.7
		c4.9-10.2,10-20.3,15.1-30.4c5.2-10.1,10.4-20.1,15.8-30c5.4-10,10.8-19.9,16.4-29.7c5.6-9.8,11.2-19.6,17-29.4
		c5.8-9.7,11.6-19.4,17.6-29c6-9.6,12-19.2,18.2-28.6s12.4-18.9,18.8-28.3c6.4-9.4,12.8-18.6,19.4-27.9c6.5-9.2,13.2-18.4,19.9-27.5
		c6.7-9.1,13.6-18.1,20.5-27c6.9-8.9,13.9-17.8,21-26.6c7.1-8.8,14.3-17.5,21.6-26.2c7.3-8.7,14.7-17.2,22.1-25.7
		c7.5-8.5,15-16.9,22.6-25.3c268.8-296.6,653.5-497.3,1047.5-561.1C1835.7,527.9,1908,523.7,1980,520.2z"/>
	<path fill="#EEC785" d="M3735.5,1806.4c4.7,0.3,10.4,0.5,14.9,1.9c5.9,1.8,9.8,6.2,12.2,11.8c9.4,21.9,3.8,57.8,4.1,81.6
		c0.1,13,0,26.1-0.3,39.1c-0.2,13-0.6,26-1.2,39.1c-0.6,13-1.3,26-2.1,39c-0.9,13-1.9,26-3.1,39c-1.2,13-2.5,25.9-4,38.9
		c-1.5,12.9-3.1,25.9-4.9,38.8c-1.8,12.9-3.7,25.8-5.8,38.6c-2.1,12.9-4.3,25.7-6.8,38.5c-2.4,12.8-5,25.6-7.7,38.3
		c-2.7,12.7-5.6,25.4-8.6,38.1c-3,12.7-6.2,25.3-9.5,37.9c-3.3,12.6-6.8,25.2-10.4,37.7c-3.6,12.5-7.4,25-11.3,37.4
		c-3.9,12.4-8,24.8-12.2,37.1c-4.2,12.3-8.6,24.6-13,36.8c-4.5,12.2-9.1,24.4-13.9,36.5c-158.7,402.2-503.5,745.9-899.3,917
		c-29,12.7-58.3,24.7-87.9,36c-29.6,11.3-59.4,21.9-89.5,31.7c-30.1,9.8-60.4,19-91,27.4c-30.5,8.4-61.3,16-92.2,22.9
		c-289.1,62.1-626.5,51-908.5-39.3c-35.9-11.5-71.8-26.2-106.8-40.3c-9.3-3.8-23-8.3-27.1-17.9c0.9-5.8,1-7.1,4.7-11.6
		c13.7-5.2,138.5,42.9,169.2,44.5l-0.5-1.6c-32.8-7.5-194.9-65.4-214-89.4c-3.4-4.3-3.6-6.8-3.3-12.1c7.4-9.6,16.8-3,26,0.9
		c86.4,36.7,174.6,67.3,266.1,88.1c236.2,53.8,507,40.7,739.3-25.3c331.1-94,564-232.2,793.9-489.7c85.8-96.1,162.1-197.8,225-310.5
		c58.2-110.2,110.2-225.6,141.8-346.6c16.9-64.9,35.3-138.9,42-205.7c1.8-17.6,0.3-58.7,11.8-72.2c3.1-3.6,6.8-6.5,11.8-6.3
		c2.8,0.1,5.3,0.8,7.2,2.9c5.4,5.9,5.9,15.2,5.9,22.8c-0.1,51.7-16.5,130-28,181.7c-3.5,16.3-7.3,32.5-11.3,48.6
		c-4,16.2-8.3,32.2-12.8,48.3c-4.5,16-9.3,32-14.3,47.8c-5,15.9-10.3,31.7-15.8,47.4c-5.5,15.7-11.2,31.3-17.2,46.9
		c-6,15.5-12.2,31-18.7,46.3c-6.5,15.3-13.2,30.6-20.1,45.7c-6.9,15.1-14.1,30.1-21.5,45.1c-7.4,14.9-15,29.7-22.9,44.4
		c-7.9,14.7-15.9,29.2-24.3,43.6s-16.8,28.7-25.6,42.9c-8.8,14.2-17.7,28.2-26.9,42c-9.2,13.9-18.6,27.6-28.2,41.2
		c-9.6,13.6-19.4,27-29.5,40.3c-10,13.3-20.3,26.4-30.7,39.4c-10.4,13-21.1,25.8-31.9,38.4c-26.3,31-52.4,63.2-81.3,91.8
		c-18.4,18.2-37.8,35.3-56.6,53.1c-39.4,37.5-78,74.7-120.9,108.3c-262.2,205.3-590.2,323.5-921.5,347.6
		c-42.7,3.1-86.6,6.3-129.4,5.8c-45.5-0.5-91-4.9-136.4-5c2.2,0.6,4.5,1.2,6.8,1.7c16.1,3.4,34.1,3.7,50.5,5.2
		c57,5.6,114.1,8.5,171.3,8.6c18.8,0.3,37.7,0.4,56.5,0.1c18.8-0.3,37.7-0.8,56.5-1.7c18.8-0.9,37.6-2,56.4-3.5
		c18.8-1.5,37.5-3.2,56.2-5.3c18.7-2.1,37.4-4.4,56.1-7.1c18.6-2.7,37.2-5.6,55.8-8.9c18.6-3.3,37-6.8,55.5-10.7
		c18.4-3.9,36.8-8,55.1-12.5c18.3-4.4,36.5-9.2,54.7-14.2c18.2-5,36.2-10.4,54.2-16c18-5.6,35.9-11.5,53.7-17.7
		c17.8-6.2,35.5-12.7,53.1-19.4c17.6-6.8,35.1-13.8,52.4-21.1c17.4-7.3,34.6-14.9,51.7-22.8c17.1-7.9,34.1-16,51-24.4
		c16.9-8.4,33.6-17.1,50.1-26c55.4-30.2,109.2-64.8,161.6-100c11.4-7.5,22.6-15.2,33.8-23.1c11.2-7.8,22.2-15.8,33.2-23.9
		c11-8.1,21.8-16.4,32.5-24.8c10.7-8.4,21.4-16.9,31.9-25.6c10.5-8.7,20.9-17.5,31.2-26.4c10.3-8.9,20.5-18,30.5-27.2
		c10.1-9.2,20-18.5,29.8-27.9c9.8-9.4,19.5-19,29.1-28.7c9.6-9.7,19-19.5,28.4-29.4c9.3-9.9,18.5-20,27.6-30.1
		c9.1-10.2,18-20.5,26.8-30.8c8.8-10.4,17.5-20.9,26-31.5c8.5-10.6,16.9-21.3,25.2-32.2c8.3-10.8,16.4-21.8,24.4-32.8
		c8-11,15.8-22.2,23.5-33.4c7.7-11.2,15.3-22.6,22.7-34c7.4-11.4,14.7-23,21.8-34.6c7.1-11.6,14.1-23.3,20.9-35.1
		c6.8-11.8,13.5-23.7,20-35.7c6.5-12,12.9-24,19.1-36.2c6.2-12.1,12.3-24.3,18.1-36.6c5.9-12.3,11.6-24.7,17.2-37.1
		c5.6-12.4,11-24.9,16.2-37.5c5.3-12.6,10.3-25.2,15.3-37.9c4.9-12.7,9.7-25.5,14.3-38.3c4.6-12.8,9-25.7,13.3-38.6
		c4.3-12.9,8.4-25.9,12.3-39c3.9-13,7.7-26.1,11.3-39.3c3.6-13.1,7-26.3,10.3-39.6c3.3-13.2,6.4-26.5,9.3-39.8
		c2.9-13.3,5.7-26.7,8.3-40c2.6-13.4,5-26.8,7.2-40.2c11.2-68.2,17.9-136.8,20.3-205.9c0.6-20.4,1.2-40.9,0.7-61.4
		c-0.5-23.5-5.6-53.3-0.3-76.2C3724.5,1814.9,3728.6,1811,3735.5,1806.4z"/>
	<path fill="#C38894" d="M1856,2189l123.1,0.9l28.1,247.2l2.9,28.7c2,18.5,9.4,51.9,3.6,69.1c-14.6,4.6-48.9,37.2-64.1,47.8
		c-23.5,16.4-47.9,30.8-74.3,42.2c6.7,22.2,13.1,44.4,21.9,65.9c-87.2,52-199.6,56.8-298.5,49.7c10.2-19,21.8-37.2,33.1-55.5
		c-28,1.4-117.4,2.7-138.5,14c-1.8-0.5-3.6-0.6-5.4-0.6c-13,0.4-27.5,4.9-40.1,8.3c-60.9,16.1-117.5,44.4-159.5,92.5
		c-33.8,38.6-43.9,72.8-40.6,123.5c-7.1-15.3-12.5-30.8-15.8-47.4c-30.1-149.3,87-293.5,164.6-408.9l19.3-26.4
		c21.4-20.8,66.9-95.2,84.5-123.8c32.6,0.1,86.4,7,115.6-4.5c24.6-9.7,36.2-30.4,46.4-53.2c7.1,21.4,17.7,39.3,38,50.7
		c18.8,10.6,45.5,13.9,66.2,7.7C1811.4,2303.2,1834.1,2228.1,1856,2189z"/>
	<path fill="#FEFEFE" d="M1671.4,1237.7c0.3,0.3,0.7,0.6,1,1c8.7,14.4-13.6,57.5-17.4,74.1l-0.7,3.1l-1.1-0.6
		C1650.1,1284.8,1655.4,1263.8,1671.4,1237.7z"/>
	<path fill="#FEFEFE" d="M1679,1442.3c9.5,7.5,13,23.2,15.1,34.5c1.3,7,3.8,20.8-0.1,26.4l-24.1-7.8
		C1672.4,1477.6,1675.4,1459.9,1679,1442.3z"/>
	<path fill="#FEFEFE" d="M1762.3,1654.7c-4.4-55.3-21.5-98.9-35.5-151.4c18.8,32.9,32.1,68.8,45.2,104.2c4.1,17.9,1.4,29.2-8.2,44.8
		C1763.3,1653.1,1762.8,1653.9,1762.3,1654.7z"/>
	<path fill="#822F51" d="M2291,1289.9c-7.4-1-19,7.8-25.6,11.5l11.7-10.3c2.2-1.9,4.4-3.7,6.2-5.9c3.1-3.8,4.3-7.1,4-11.9
		c-10.3-5.8-37.3,7.6-49.1,10.2c-8,1.8-16.6,2.3-24.7,3l11.4-9.1c2.2-1.7,4.5-3.3,6.5-5.2c4.4-4,7.6-8.8,8-14.8l-2.9-2.3
		c-5.5-0.4-9.8,0.2-15.1,1.6c-18.7,5.2-54.8,18.5-69.9,30.9c-21.3,17.4-30.9,52.1-48.1,74.1c-33.5,42.6-80.1,74.1-107.6,121.8
		c-29.1-34.3-50.1-71.2-68.8-111.9c1.6,1.9,3.2,3.8,4.7,5.7c18.3,22.1,40.7,70.9,59.8,86c3.6,2.8,3.7,3.1,8.5,2.6
		c0.4-0.5,0.8-1,1.2-1.5c3-5.3,2.3-13,1.9-18.9c-3.1-45.3-31.6-73.9-49.3-113.1c-7.5-16.6-8-37.6-14.3-55.2
		c-19.7-55.4-52.5-77.8-103.7-102.3c-2.2-8.1-6.5-18.9-4.2-27.2c7.1-25.6,58.8-1.7,78.6-14.6c18.1-11.7,11.6-32.7,15.5-50.1
		c3.6-4.1,7.5-8.3,9.5-13.4c2.3-6.1-0.8-11.7-3.1-17.4c4.5-3.2,11.2-7.1,14.5-11.2c12.3-15.4-27.6-30.7-29.4-48.5
		c-0.7-7.1,3.1-12.2,7-17.5c2.4-3.2,4.7-6.1,6.5-9.7c1.7-3.4,1.5-1.7,0.1-5.7l-4.9,1.9c-5.4-2.7-11.9-30.8-15.8-38
		c-3.4-6.3-8.4-12-13.1-17.4c5-5,9.4-10.4,13.4-16.3c0.9-1.4,1.8-2.7,2.7-4.1s1.7-2.8,2.5-4.3c0.8-1.4,1.5-2.9,2.3-4.4
		c0.7-1.5,1.4-3,2.1-4.5c0.6-1.5,1.3-3,1.8-4.6c0.6-1.5,1.1-3.1,1.6-4.7c0.5-1.6,0.9-3.1,1.4-4.7c0.4-1.6,0.8-3.2,1.1-4.8
		s0.6-3.2,0.9-4.9c0.3-1.6,0.5-3.3,0.6-4.9c0.2-1.6,0.3-3.3,0.4-4.9c0.1-1.6,0.1-3.3,0.2-4.9c0-1.6,0-3.3-0.1-4.9
		c-0.1-1.6-0.2-3.3-0.3-4.9c-0.2-1.6-0.3-3.3-0.6-4.9c-0.2-1.6-0.5-3.2-0.8-4.9c-0.3-1.6-0.7-3.3-1.1-4.9c-0.4-1.6-0.9-3.2-1.4-4.8
		c-0.5-1.6-1-3.2-1.6-4.7c-0.6-1.6-1.2-3.1-1.8-4.6c-0.7-1.5-1.4-3-2.1-4.5c-0.7-1.5-1.5-3-2.3-4.4c-0.8-1.5-1.7-2.9-2.5-4.3
		c-0.9-1.4-1.8-2.8-2.8-4.2c-1-1.4-1.9-2.7-3-4s-2.1-2.6-3.2-3.9c-1.1-1.3-2.2-2.5-3.4-3.7c-1.2-1.2-2.3-2.4-3.6-3.5
		c-1.2-1.1-2.5-2.2-3.7-3.3c-1.3-1.1-2.6-2.1-3.9-3.1c-1.3-1-2.7-2-4-2.9c-1.4-0.9-2.8-1.8-4.2-2.7c-22.7-13.9-51.7-17.8-77.4-10.9
		c-30.7,8.2-48,29.7-62.8,56.2c-7.7,0.3-15.6-0.7-23.1,1.2c-22.9,5.7-44.9,38.5-63.4,53.3c-12.7,10.2-28,17-40.5,27.3
		c-5.5,4.5-9.1,10.8-12.7,16.9c-0.9,13.6-0.1,25.1,3.3,38.3c1.1,4.2,1.9,8.1,2.4,12.4c-29-3.3-54.5,15-76.4,32.4
		c-16.5,13.1-31.6,29.6-34.2,51.4c-1.7,14.6,3.1,32.5,12.8,43.6c1.2,1.4,1.9,2,3.4,3.3c5.5-0.2,6.5-2.3,10.1-6.2
		c0.7-0.7,1.3-1.5,2-2.2c24.3-40.7,21.4-77.8,69.6-105l1.9,9.6c-2,4.5-4,9-6.2,13.4c-9.7,18.2-17,36.7-22.6,56.6
		c-12.5,44.4-19.8,123.8-73.8,139c-11.1,3.1-24.5,1.8-36,3.1c22.6,6.9,49.4,14.6,72,3.4c18.7-9.3,28.3-29.6,34.1-48.6
		c13.6-44.7,4.7-98.4,27.5-139.5l2.1-0.9c-4,46.2-2,83.2,20.7,124.7c4.4,8,9,18.1,14.9,25c2.7,3.2,5.6,4.4,9.6,5.2l3.4-1.5
		c3.3-9.6-0.8-17.8-5.1-26.5c-6.5-13.2-15.8-24.9-23.2-37.7c-15.7-27-13-61.3-9.6-91c2.8-5.8,4.8-11.7,10.6-15.2
		c5.5,2.9,8.1,9.4,11,14.6c13.3,23.9,24.3,47.6,44.2,66.9c7.4,7.3,15.6,13.7,24.5,19.2c15.8,9.4,40.8,15.3,48,33.7
		c2.8,7.2,0,19.8-1.2,27.3c-8.6,6-16.9,11.8-24.4,19.1c-22,2.9-37.1,14.5-50.3,32c-36.6,48.4-16,67.2-28.2,111.6
		c-5.2,18.9-13.4,37.2-19.6,55.9c-14.1,42-26.2,84.9-39,127.3c-9.9,32.7-21.5,65.9-27.7,99.5c-2.6,14.3-4.3,29.1-2,43.6
		c0.4,2.3,0.8,4.5,1.3,6.8c1.9,8.9,3.9,17.3,7.2,25.8c19.9,23.7,80.7,45.8,111,54.9c27.4-7.3,50.5-26.4,73.3-42.5
		c6.3-9,15.2-12.4,19-23.8c0.5-0.8,1-1.6,1.5-2.3c9.6-15.6,12.2-26.9,8.2-44.8c45.1-10.9,107.6-17.3,152.6-3l6.1-55.9
		c11.5,12.7,35.3,36.7,52.1,40.6c6.3,1.4,11.4,0.1,16.6-3.3c13.9-9.1,24.6-25.5,34.4-38.7c21.5-28.8,41.4-58.7,59.7-89.6
		c16.2-27.5,30.5-58,50.2-83.1c7.6-9.6,15.2-15.8,25.8-22c20.9-0.1,43.9,1.8,64.6-1.3c18.7-2.8,32.9-15.5,43.7-30.3
		C2283.3,1313.2,2292.6,1299.7,2291,1289.9z"/>
</g>
</svg>
