<?xml version="1.0" encoding="utf-8"?>
<!-- Generator: Adobe Illustrator 27.1.0, SVG Export Plug-In . SVG Version: 6.00 Build 0)  -->
<svg version="1.1" baseProfile="basic" id="Layer_1"
	 xmlns="http://www.w3.org/2000/svg" xmlns:xlink="http://www.w3.org/1999/xlink" x="0px" y="0px" width="4000px" height="4000px"
	 viewBox="0 0 4000 4000" xml:space="preserve">
<g>
	<path fill="#C09A49" d="M2057.1,1401.6c5.5,9.2,9,19.6,20.3,22.7l15.3,4c-4.3,1.5-2.7,1.2-6.6,1.7c-4,0.5-8.3,0.7-12,2.2
		c-8.3,3.2-12.7,12.3-16.3,19.8l-1.1,2.3l-2.5,4.8c-3.4-11.4-1.5-21.9-11.4-30.3c-5.1-0.8-10.1-1-14.1-4.6l0.8-1.5
		c5.7-1.1,11-2.6,16.3-5.1c6.8-3.1,8.3-7.5,10.6-14.1C2056.6,1402.9,2056.8,1402.3,2057.1,1401.6z"/>
	<path fill="#3E3234" d="M3667.5,2513.6c24.2,5.3,48,20.5,64.7,38.6c18.9,20.4,30.4,47.6,29.6,75.5c-5.4-9.2-9.2-20.2-14.3-29.8
		C3727.7,2560.3,3702.7,2536.5,3667.5,2513.6z"/>
	<path fill="#C09A49" d="M1083.7,1189.2c3-0.1,6.1-0.2,9.1,0.1c6.4,0.6,12.6,4.1,16.6,9.2c3.7,4.6,5.2,10.2,3.9,16.1
		c-2,9.2-8.2,12.5-15.7,16.9c-1.1,0.1-2.3,0.3-3.4,0.3c-6.9,0-14.5-2.6-19.1-8c-3.6-4.2-4.9-9.9-4.4-15.3
		C1071.6,1199.1,1076.8,1194.7,1083.7,1189.2z"/>
	<path fill="#C09A49" d="M603.1,849.7c0.7-0.1,1.4-0.2,2.2-0.2c9.5-0.8,17,0.4,24.2,7.1c5.5,5,8.3,11.8,8.1,19.2
		c-0.3,11.3-6.1,17.6-14.2,24.7c-4.5,0-9.1,0.1-13.5-0.7c-8.4-1.6-15.3-6.7-19.9-13.9c-0.4-0.6-0.8-1.3-1.1-2
		c-0.3-0.7-0.7-1.4-0.9-2.1c-0.3-0.7-0.5-1.4-0.7-2.2c-0.2-0.7-0.4-1.5-0.5-2.2c-0.1-0.8-0.2-1.5-0.2-2.3c0-0.8,0-1.5,0-2.3
		c0-0.8,0.1-1.5,0.3-2.3c0.1-0.8,0.3-1.5,0.5-2.2C589.7,859.1,595.3,854.5,603.1,849.7z"/>
	<path fill="#C09A49" d="M3294.6,930.5c16.5,28.3,14.2,33.9,46.6,45.8c-11.6,3.9-21.3,8.3-31.5,15.1c-3.7,7.6-6.4,15.8-9.3,23.7
		l-1.1,1.7c-6.9-3.3-7.5-18.6-13.6-24.4c-5.9-5.7-14-9.8-21.1-13.9l0.4-2.6l2.4-1.4C3287.5,962.7,3289,952.2,3294.6,930.5z"/>
	<path fill="#C09A49" d="M1170.4,869.4c5.2-0.5,10.6-1,15.8,0c8.6,1.8,16.9,8.2,21.3,15.7c0.5,0.8,0.9,1.6,1.3,2.5s0.7,1.7,1.1,2.6
		s0.6,1.8,0.8,2.7c0.2,0.9,0.4,1.8,0.5,2.8c0.1,0.9,0.2,1.9,0.2,2.8c0,0.9,0,1.9,0,2.8c-0.1,0.9-0.2,1.9-0.3,2.8
		c-0.2,0.9-0.3,1.9-0.6,2.8c-3.1,11.4-10.7,17.2-20.4,22.9c-5.2,0.9-10.2,1.7-15.5,0.8c-8.4-1.4-16.1-5.9-20.6-13.2
		c-4.6-7.4-5.4-16.4-3.4-24.8C1153.5,881,1160.5,875.4,1170.4,869.4z"/>
	<path fill="#3E3234" d="M3053.6,730.2c-0.1,15.2-3.2,31.2-5,46.2c16.1,29.5,39.7,57.1,61.7,82.5c-21.8-11.6-41.8-26.5-62-40.6
		l-5.9-4.4c-18.4,2.2-41.6,22.7-58.3,31.9c12.2-22.2,28-42.2,41.7-63.5C3036.4,765.6,3045,748,3053.6,730.2z"/>
	<path fill="#3E3234" d="M3627.4,1604.3c5.3,5.4,7.2,17.4,7.1,24.8c-0.6,1.1-0.9,2.4-1.8,3.2c-3.7,3.7-162.3,54.4-182.8,60.4
		c-4.8-7.7-6.3-16.2-8.3-25C3500.5,1648.9,3571.8,1629.5,3627.4,1604.3z"/>
	<path fill="#C09A49" d="M1424.3,1290.5c2.4,6.8,4.1,13.9,6.3,20.9c11.3,35.3,28.9,56.9,62.1,73.7c-11.3,2.4-23,5.3-33.2,10.8
		c-23,12.2-29.2,33.5-36.3,56.7l-2.6,1.6c-0.9-14.2-3.8-28.8-10.4-41.5c-11.2-21.3-29.5-33.3-51.9-40.1c7.7-2.6,15.9-5.1,22.9-9.3
		C1407.6,1347.6,1416.5,1318.3,1424.3,1290.5z"/>
	<path fill="#C09A49" d="M3238.8,733.5c10.3,9.9,10.5,35.5,15.9,48.9c13.5,33.8,46.7,46,77.4,58.9c-11.3,3.1-23.1,6.7-33.9,11.3
		c-39.7,16.9-43.5,51.5-58,86.9l-2.4,0.3c-2.9-13.3-8.1-27.1-13.6-39.5c-17.8-40-48.8-47.3-86.2-61.9c18.5-6.5,38.7-9.3,55.7-19.5
		C3222.7,801.4,3231,763.8,3238.8,733.5z"/>
	<path fill="#C09A49" d="M3122.5,880.4c12.8,14.7,15.7,45,22.5,63.2c11,29.3,51,41.6,77.2,53.8c-15.5,5.1-32.4,9.6-47,16.8
		c-31.1,15.5-37.3,58.2-46.9,88.5c-15.1-9.3-19.7-41.8-27.3-57.2c-15-30.5-45.4-38.2-75.3-47.9c23.3-9,44.6-19.4,65.9-32.6
		C3105.6,938.2,3113.8,909.3,3122.5,880.4z"/>
	<path fill="#C09A49" d="M1114.7,1115.9c56.6-4.1,117.4,12.3,165.4,42.4c37.8,23.7,74.3,58.2,83.9,103.5c0.4,1.7,0.7,3.4,1,5.1
		c0.3,1.7,0.5,3.4,0.7,5.1c0.2,1.7,0.3,3.5,0.5,5.2c0.1,1.7,0.2,3.5,0.2,5.2c0,1.7,0,3.5-0.1,5.2c-0.1,1.7-0.2,3.5-0.3,5.2
		c-0.1,1.7-0.3,3.4-0.6,5.2c-0.2,1.7-0.5,3.4-0.8,5.1c-0.3,1.7-0.7,3.4-1.1,5.1c-0.4,1.7-0.8,3.4-1.3,5c-0.5,1.7-1,3.3-1.6,5
		c-0.6,1.6-1.2,3.3-1.8,4.9c-0.6,1.6-1.3,3.2-2.1,4.8c-0.7,1.6-1.5,3.1-2.3,4.7c-0.8,1.5-1.6,3.1-2.5,4.6c-0.9,1.5-1.8,3-2.7,4.4
		c-17.3,26-45.9,45.1-76.7,50.4c-23.4,4-49.1,0.8-68.4-13.7c-1.9-1.4-3.7-3-5.5-4.6c-1.8-1.6-3.4-3.3-5-5.1
		c-1.6-1.8-3.1-3.6-4.5-5.6c-1.4-1.9-2.7-3.9-3.9-6c-1.2-2.1-2.3-4.2-3.3-6.3c-1-2.2-1.9-4.4-2.7-6.6c-0.8-2.2-1.4-4.5-2-6.8
		c-0.5-2.3-1-4.7-1.3-7c-2.1-16.5,1.3-34.7,12.4-47.7c10.8-12.7,25.7-17.7,41.9-18.9l2.4-0.1l5.2,3.2c-9.7,2-15.6,6-22.3,13.2
		c-1.3,1.4-2.5,2.8-3.6,4.3c-1.1,1.5-2.2,3-3.1,4.6c-1,1.6-1.8,3.2-2.6,4.9c-0.8,1.7-1.5,3.4-2.1,5.2c-0.6,1.8-1.1,3.6-1.5,5.4
		c-0.4,1.8-0.7,3.7-1,5.5c-0.2,1.9-0.3,3.7-0.4,5.6c0,1.9,0.1,3.7,0.2,5.6c1.2,13.5,6.5,26.2,17.3,34.7
		c12.3,9.7,28.9,12.8,44.1,11.1c21.8-2.5,48.6-16.7,61.8-34.5c12.8-17.2,17.4-38.1,14.2-59.2c-5.6-37.2-34.7-66.1-64.2-86.9
		c-69.1-48.6-158-62-240.1-47.7C1060.9,1127.6,1086.1,1119.2,1114.7,1115.9z"/>
	<path fill="#C09A49" d="M2282,1475.5c3-0.1,6.1-0.2,9.1,0.1c6.4,0.6,12.6,4.1,16.6,9.2c3.7,4.6,5.2,10.2,3.9,16.1
		c-2,9.2-8.2,12.5-15.7,16.9c-1.1,0.1-2.3,0.3-3.4,0.3c-6.9,0-14.5-2.6-19.1-8c-3.6-4.2-4.9-9.9-4.4-15.3
		C2269.8,1485.4,2275,1481,2282,1475.5z"/>
	<path fill="#C09A49" d="M2622.6,1576.8c2.4,6.8,4.1,13.9,6.3,20.9c11.3,35.3,28.9,56.9,62.1,73.7c-11.3,2.4-23,5.3-33.2,10.8
		c-23,12.2-29.2,33.5-36.3,56.7l-2.6,1.6c-0.9-14.2-3.8-28.8-10.4-41.5c-11.2-21.3-29.5-33.3-51.9-40.1c7.7-2.6,15.9-5.1,22.9-9.3
		C2605.9,1633.9,2614.7,1604.6,2622.6,1576.8z"/>
	<path fill="#C09A49" d="M2312.9,1402.2c56.6-4.1,117.4,12.3,165.4,42.4c37.8,23.7,74.3,58.2,83.9,103.5c0.4,1.7,0.7,3.4,1,5.1
		c0.3,1.7,0.5,3.4,0.7,5.1c0.2,1.7,0.3,3.5,0.5,5.2c0.1,1.7,0.2,3.5,0.2,5.2c0,1.7,0,3.5-0.1,5.2c-0.1,1.7-0.2,3.5-0.3,5.2
		c-0.1,1.7-0.3,3.4-0.6,5.2c-0.2,1.7-0.5,3.4-0.8,5.1c-0.3,1.7-0.7,3.4-1.1,5.1c-0.4,1.7-0.8,3.4-1.3,5c-0.5,1.7-1,3.3-1.6,5
		c-0.6,1.6-1.2,3.3-1.8,4.9c-0.6,1.6-1.3,3.2-2.1,4.8c-0.7,1.6-1.5,3.1-2.3,4.7c-0.8,1.5-1.6,3.1-2.5,4.6c-0.9,1.5-1.8,3-2.7,4.4
		c-17.3,26-45.9,45.1-76.7,50.4c-23.4,4-49.1,0.8-68.4-13.7c-1.9-1.4-3.7-3-5.5-4.6s-3.4-3.3-5-5.1s-3.1-3.6-4.5-5.6
		c-1.4-1.9-2.7-3.9-3.9-6c-1.2-2.1-2.3-4.2-3.3-6.3c-1-2.2-1.9-4.4-2.7-6.6c-0.8-2.2-1.4-4.5-2-6.8c-0.5-2.3-1-4.7-1.3-7
		c-2.1-16.5,1.3-34.7,12.4-47.7c10.8-12.7,25.7-17.7,41.9-18.9l2.4-0.1l5.2,3.2c-9.7,2-15.6,6-22.3,13.2c-1.3,1.4-2.5,2.8-3.6,4.3
		c-1.1,1.5-2.2,3-3.1,4.6c-1,1.6-1.8,3.2-2.6,4.9c-0.8,1.7-1.5,3.4-2.1,5.2c-0.6,1.8-1.1,3.6-1.5,5.4c-0.4,1.8-0.7,3.7-1,5.5
		c-0.2,1.9-0.3,3.7-0.4,5.6c0,1.9,0.1,3.7,0.2,5.6c1.2,13.5,6.5,26.2,17.3,34.7c12.3,9.7,28.9,12.8,44.1,11.1
		c21.8-2.5,48.6-16.7,61.8-34.5c12.8-17.2,17.4-38.1,14.2-59.2c-5.6-37.2-34.7-66.1-64.2-86.9c-69.1-48.6-158-62-240.1-47.7
		C2259.2,1414,2284.4,1405.5,2312.9,1402.2z"/>
	<path fill="#3E3234" d="M3331.8,1572.8c19.1-0.1,36.6,3.6,52.2,15.2c17.9,13.3,30.6,34.4,33.6,56.6c0.2,1.3,0.3,2.6,0.5,3.9
		c0.1,1.3,0.2,2.6,0.3,3.9c0.1,1.3,0.1,2.6,0.1,3.9c0,1.3-0.1,2.6-0.1,3.9c-0.1,1.3-0.2,2.6-0.3,3.9c-0.1,1.3-0.3,2.6-0.5,3.8
		c-0.2,1.3-0.4,2.6-0.7,3.8c-0.3,1.3-0.6,2.5-0.9,3.8c-0.3,1.2-0.7,2.5-1.1,3.7c-0.4,1.2-0.8,2.5-1.3,3.7c-0.5,1.2-0.9,2.4-1.4,3.6
		c-0.5,1.2-1.1,2.4-1.6,3.5c-0.6,1.2-1.2,2.3-1.8,3.4c-0.6,1.1-1.3,2.2-2,3.3c-0.7,1.1-1.4,2.2-2.1,3.2c-0.7,1.1-1.5,2.1-2.3,3.1
		c-16,20.6-37.7,28.9-62.6,32.4c-20.1-0.4-38.2-3.5-54.9-15.6c-17.3-12.5-28-32-31.1-52.9c-3.1-21.2,2.1-41.9,14.9-59
		C3284.5,1586.7,3306.3,1576.9,3331.8,1572.8z"/>
	<path fill="#3E3234" d="M3034.4,1561.1c16.2-1.1,32.3,1.3,46.7,9.2c19.8,10.8,33.4,30,38.9,51.7c5.6,22.2,2.6,45.8-9.6,65.2
		c-13.9,22.2-34,31.7-58.4,37.9c-20,1.9-39.8-1.7-56.9-12.6c-1.2-0.7-2.3-1.5-3.4-2.3c-1.1-0.8-2.2-1.6-3.3-2.5
		c-1.1-0.8-2.1-1.7-3.2-2.6c-1-0.9-2-1.8-3-2.8c-1-1-1.9-1.9-2.9-2.9c-0.9-1-1.8-2-2.7-3.1c-0.9-1.1-1.7-2.1-2.5-3.2
		c-0.8-1.1-1.6-2.2-2.4-3.4c-0.8-1.1-1.5-2.3-2.2-3.5c-0.7-1.2-1.4-2.4-2-3.6c-0.6-1.2-1.2-2.4-1.8-3.7c-0.6-1.2-1.1-2.5-1.6-3.8
		c-0.5-1.3-1-2.6-1.4-3.8c-0.4-1.3-0.9-2.6-1.2-3.9c-0.4-1.3-0.7-2.6-1-4c-0.3-1.3-0.6-2.7-0.8-4c-4-22.3,0.8-46.2,14-64.7
		C2988.6,1573.3,3009.4,1564.8,3034.4,1561.1z"/>
	<path fill="#3E3234" d="M3742,2193.7l4.1,0.1c28,15,73.4,83.6,82.9,114.6c19.3,63-3.6,124.9-32.6,180.5
		c-1.4-11.6-3.8-22.9-6.3-34.4c-22.4-72.9-106-93-124.3-164.3c-4.8-18.9-10.1-50.4,0.9-67.4
		C3678.9,2203.8,3720.9,2198.9,3742,2193.7z"/>
	<path fill="#B35473" d="M3463.8,1295c3.9,0.3,8.3,1.8,11.9,3.4c5.8,2.5,9.8,7,12.7,12.5c16.4,30.9,27.1,67.4,39.6,100.3
		c23.9,64,48.5,127.7,73.9,191.1c-33.6,12.2-67.1,24.5-101.3,35.1c-12.4,4.3-25.4,7.4-38.1,10.9c-27.9-89-57.2-177.4-88-265.4
		c-5-14.6-12.5-34.6-4.5-49.3C3379.2,1316.9,3443.9,1301.2,3463.8,1295z"/>
	<path fill="#3E3234" d="M3612.6,1650.4l2.2-0.4c7.4,5.9,12.3,38,15.2,49c41.9,156.6,71.2,314.1,98,473.8
		c-15,7.1-31.7,11.2-47.8,15.2c-9.3-22.9-18.9-45.7-28.8-68.4c-42.4-98.1-88.5-194.6-132.2-292.1c-11.5-25.7-22.6-51.6-33.2-77.7
		c-7-16.9-13.1-34.9-22.3-50.7C3513,1682,3563.7,1668.5,3612.6,1650.4z"/>
	<path fill="#3E3234" d="M697.1,954.2c21.1,22,63.8,132.2,75.1,165.1c34.5,99.9,45.7,204.3-2.5,302.1
		c-40.9,82.9-121.4,159.3-209.5,189.1c-28.6,9.7-106.6,24.3-133.2,11.1c-0.2-9.1,25-16.4,32.2-19c86.5-31.7,171.2-72.2,229.6-146.2
		c55.3-70.2,75.4-158.5,64.8-246.4c-2.8,21.4-3.1,43.1-5.5,64.6c-5.8,52.2-23.5,103.2-53.9,146.2
		c-48.3,68.2-119.7,109.4-195.1,141.5c-22.5,9.6-45.2,19.5-69.4,23.7c-10.1-30-11.4-64.2-13.6-95.6c-0.3-14.6-0.7-29.2-0.2-43.8
		c3.1-99.8,48.2-174.5,132.4-227.3c34-21.3,70.9-39.7,100.1-67.6c34.4-32.9,46.7-67.4,47.6-114.3c-7.7,19.7-16.1,36.6-30,52.7
		c-20,23.3-45.4,39.8-70.6,56.7c-67.1,45-135.4,89.1-174,163.1c-18.6,35.7-30.9,78.2-33.5,118.4c-2.3,36.6,1.1,73.9,8.2,109.8
		c3.1,15.9,8.1,32.1,9.9,48.1c0.6,5,1.4,12.2-1,16.8c-2.6,4.9-4.7,5.6-9.6,7.3c-6-2.1-8-4.1-11-9.7c-6-11-9.4-23.4-13.5-35.2
		c-15.9-45.1-26.9-89.3-25.3-137.6c4.1-129.9,84.1-220.2,187.5-289.2c38.2-25.5,81-48.3,111.7-83.2
		C671.5,1025.1,685.2,992.1,697.1,954.2z"/>
	<path fill="#3E3234" d="M939.7,1543.8c49.3-0.2,95.9,8.8,132.2,44.4c28.2,27.7,36.2,64.8,36.5,103.2
		c0.4,46.6-17.2,143.1-51.4,176.4c-7.1,6.9-14.7,10.7-24.8,10.5c-17.3-0.4-37.1-10.5-48.3-23.6c-28.9-33.8,8.8-106.4,20.5-141.8
		c2.4-7.1,4.4-14.3,6-21.7c1.6-7.3,2.8-14.7,3.5-22.2c2.2-22.6,1.7-47.7-14.1-65.6c-11.1-12.6-24-17.4-40.5-18
		c-57.2-2-117.2,35.7-157.5,73.1c-96.6,89.6-148.2,233.7-152.9,363.9c-2.7,74.4,8.7,157.4,62,213.5c27.5,28.9,64.4,46.5,104.6,47.3
		c48.4,1,95.2-20.1,129.8-53.4c30.2-29.1,70.3-89.2,71-132.5c-11.3-8.4-94,0.1-112.8,1.1c-36.8,1.9-92.8,8.6-125.5-11
		c-10.6-6.3-18.2-15.6-20.8-27.8c-2-9.7-0.3-19.1,5.7-27.1c12.5-16.6,53.5-19.8,73.5-22.7c52-7.6,196.3-22.4,236.8,9.7
		c11.9,9.4,18,23.4,19,38.3c4.1,61.9-48.6,148.4-87.7,193.2c-1.5,1.8-3.1,3.5-4.6,5.3c-1.6,1.7-3.2,3.5-4.8,5.2
		c-1.6,1.7-3.2,3.4-4.9,5c-1.7,1.7-3.3,3.3-5,4.9s-3.4,3.2-5.1,4.8c-1.7,1.6-3.5,3.1-5.3,4.6c-1.8,1.5-3.6,3-5.4,4.5
		c-1.8,1.5-3.6,2.9-5.5,4.4c-1.8,1.4-3.7,2.9-5.6,4.2s-3.8,2.8-5.7,4.1c-1.9,1.3-3.9,2.7-5.8,3.9c-2,1.3-3.9,2.6-5.9,3.8
		c-2,1.2-4,2.5-6,3.6c-2,1.2-4,2.4-6.1,3.5c-2,1.1-4.1,2.3-6.2,3.3c-2.1,1.1-4.2,2.1-6.3,3.2c-2.1,1-4.2,2-6.3,3
		c-2.1,1-4.3,1.9-6.4,2.9c-2.2,0.9-4.3,1.8-6.5,2.7c-2.2,0.9-4.4,1.7-6.6,2.5c-2.2,0.8-4.4,1.6-6.6,2.4c-2.2,0.8-4.4,1.5-6.7,2.2
		s-4.5,1.4-6.7,2c-2.2,0.7-4.5,1.3-6.8,1.9c-2.3,0.6-4.5,1.2-6.8,1.7c-2.3,0.5-4.6,1-6.9,1.5c-2.3,0.5-4.6,0.9-6.9,1.3
		c-2.3,0.4-4.6,0.8-6.9,1.2c-2.3,0.4-4.6,0.7-7,1c-2.3,0.3-4.6,0.6-7,0.8c-2.3,0.2-4.7,0.5-7,0.6s-4.7,0.3-7,0.5
		c-71.4,4.4-141.2-11.3-195.6-59.8c-58.4-52-82.6-129.7-86.7-205.8c-7.5-138.6,39.2-290.9,133-394.1
		C732.8,1607,828.5,1549,939.7,1543.8z"/>
	<path fill="#C09A49" d="M2554.7,2718.9c-95.7,20.4-158.5,58.6-224.2,130.3c-79.6,5-180.4,30.7-257,54.4
		c-371.4,114.8-717.2,352.6-1122.4,264.5c-8.8-1.9-17.5-4-26.2-6.2c-8.7-2.2-17.3-4.5-25.9-7c-8.6-2.5-17.2-5.1-25.7-7.8
		c-8.5-2.8-17-5.6-25.4-8.7c-8.4-3-16.8-6.2-25.1-9.5c-8.3-3.3-16.6-6.7-24.8-10.3c-8.2-3.6-16.4-7.2-24.5-11.1
		c-8.1-3.8-16.1-7.8-24.1-11.8c-8-4.1-15.9-8.3-23.7-12.6c-7.8-4.3-15.6-8.8-23.3-13.4c-7.7-4.6-15.3-9.3-22.9-14.1
		c-7.5-4.8-15-9.8-22.4-14.8c-7.4-5.1-14.7-10.2-21.9-15.5c-7.2-5.3-14.4-10.7-21.4-16.2c-7.1-5.5-14-11.2-20.9-16.9
		c-6.9-5.8-13.6-11.6-20.3-17.6c-5.8-5.2-11.5-10.4-17.2-15.8c-5.7-5.3-11.2-10.7-16.8-16.2c-5.5-5.5-11-11-16.4-16.6
		c-5.4-5.6-10.7-11.3-15.9-17c-5.2-5.7-10.4-11.5-15.5-17.4c-5.1-5.9-10.1-11.8-15.1-17.8c-5-6-9.8-12-14.6-18.1
		c-4.8-6.1-9.5-12.3-14.2-18.5c-4.7-6.2-9.2-12.5-13.7-18.8c-4.5-6.3-8.9-12.7-13.3-19.1c-4.3-6.4-8.6-12.9-12.8-19.5
		c-4.2-6.5-8.3-13.1-12.3-19.8c-4-6.6-8-13.3-11.8-20.1c-3.9-6.7-7.6-13.5-11.3-20.4c-3.7-6.8-7.3-13.7-10.8-20.6
		c-3.5-6.9-7-13.9-10.3-20.9c-3.4-7-6.6-14.1-9.8-21.1c-3.2-7.1-6.3-14.2-9.3-21.4c-3-7.2-5.9-14.4-8.7-21.6
		c-2.8-7.2-5.6-14.5-8.2-21.8c-2.6-7.3-5.2-14.6-7.7-22c-2.5-7.4-4.8-14.8-7.1-22.2c-2.3-7.4-4.5-14.9-6.6-22.4
		c-2.1-7.5-4.1-15-6-22.5c-1.9-7.5-3.7-15.1-5.5-22.7c-1.7-7.6-3.4-15.2-4.9-22.8c-1.5-7.6-3-15.2-4.3-22.9s-2.6-15.3-3.8-23
		c-1.2-7.7-2.2-15.4-3.2-23.1s-1.9-15.4-2.6-23.1c-0.8-7.7-1.5-15.5-2.1-23.2c-0.6-7.7-1.1-15.5-1.5-23.2
		c-12.3-200.2,28-407.5,107.1-591.4c7.1-16.5,34.8-63.4,17.2-77.7c-4.3-3.5-9.3-3.7-14.5-4.1c-19.8,15.2-30.2,50.1-39.4,72.8
		c-12,28.9-23.1,58.2-33.3,87.9c-10.1,29.7-19.3,59.6-27.5,89.9c-8.2,30.2-15.4,60.7-21.7,91.4c-6.2,30.7-11.5,61.6-15.8,92.6
		c-36.3,278.9,18.3,560.2,191.8,785.7c143,186,355.2,318,589.4,348.3c43.6,5.7,86.4,6.9,130.3,6.5c185.8-1.5,339.2-55.6,509.9-122.2
		l240.8-95.2c141.4-56.9,262.1-102.8,414.5-123.3c-28,71.8-44,146.2-11.5,219.8c1.3,2.9,2.7,5.9,4.1,8.7c1.4,2.9,3,5.7,4.5,8.5
		c1.6,2.8,3.2,5.6,5,8.3c1.7,2.7,3.5,5.4,5.4,8c1.9,2.6,3.8,5.2,5.8,7.8c2,2.5,4,5,6.1,7.5c2.1,2.4,4.3,4.8,6.5,7.2
		c2.2,2.3,4.5,4.6,6.8,6.8c2.3,2.2,4.7,4.4,7.2,6.5c2.4,2.1,4.9,4.1,7.5,6.1s5.1,3.9,7.8,5.8c2.6,1.9,5.3,3.6,8,5.4s5.5,3.4,8.3,5
		c2.8,1.6,5.7,3.1,8.5,4.5c2.9,1.4,5.8,2.8,8.7,4.1c3,1.3,5.9,2.5,8.9,3.7c44.4,17.1,97.5,17.2,141.2-2.2
		c43.8-19.5,79.2-59.4,96-104c1.1-2.9,2.2-5.8,3.1-8.8c1-3,1.9-5.9,2.7-8.9c0.8-3,1.6-6,2.2-9.1c0.7-3,1.3-6.1,1.8-9.2
		c0.5-3.1,0.9-6.2,1.3-9.2c0.4-3.1,0.6-6.2,0.8-9.3c0.2-3.1,0.3-6.2,0.3-9.3c0-3.1,0-6.2-0.1-9.3c-0.1-3.1-0.3-6.2-0.6-9.3
		c-0.3-3.1-0.6-6.2-1.1-9.3c-0.4-3.1-0.9-6.2-1.5-9.2c-0.6-3.1-1.3-6.1-2-9.1c-0.7-3-1.6-6-2.5-9s-1.9-5.9-2.9-8.9
		c-1-2.9-2.2-5.8-3.4-8.7c-1.2-2.9-2.5-5.7-3.8-8.5c-20.7-44.4-62.9-73-107.9-89.1c-51.7-18.5-102.5-18.4-156.6-17.9
		c31-30.9,66.8-56.5,107.4-73.3c138.3-56.4,305.9-52,449.5-18.1c39.9,9.4,79,23.1,118,35.8
		C2905.6,2698.3,2717.5,2684.3,2554.7,2718.9z M2376.8,2873.9c40.5-3.9,86.9-0.5,126.2,9.7c43.6,11.4,83.6,36,106.5,75.8
		c20.3,35.3,22.9,76.1,12,114.8c-12.1,43-38.8,75.8-77.5,97.6c-7.8,4.2-16.6,7.8-25.1,10.3c-40.1,11.8-85.1,5.8-121.5-14.3
		c-40.8-22.6-69.3-58.9-81.9-103.8c-17.8-63.4-2.2-130.4,29.6-186.5C2355.6,2875.6,2366.3,2874.9,2376.8,2873.9z"/>
	<path fill="#B35473" d="M2569.2,2430.8c3.6-0.3,7.2-0.6,10.9-0.7c148.9-7,324.4-0.3,445.3,98c40.9,33.3,71.1,76.2,110.2,110.8
		l2.5,2.1c-23.5-11.4-45.7-25.3-68.6-37.7c-10.3-5.6-20.7-10.9-31.3-15.8c-10.6-4.9-21.4-9.5-32.3-13.7c-10.9-4.2-22-8-33.2-11.5
		c-11.2-3.5-22.5-6.6-33.9-9.3c-131.6-30.5-280.6-28.8-414.4-16.8c-97.7,8.8-195.9,26.7-292.4,44.5
		c-302.1,55.6-597.1,138.7-893.8,217.2c-86.5,23.5-173.4,45.7-260.6,66.7c-70.9,16.7-149.4,37.8-222.8,35.3
		c-35.5-1.2-71-10.2-101.7-28.3c-45.4-26.8-70.5-66.5-83.6-116.7c-6.2-47.7,2.7-93.5,30.1-133.5c28-40.9,73.2-78.1,123-86.8
		c37.6-6.6,80.1,1.8,111.2,24.3c28.1,20.3,45.2,52.7,50.3,86.6c4.7,31.2-2,63.8-21.6,89c-12.7,16.4-34.2,30.7-55.3,33.1
		c-1,0.1-1.9,0.2-2.9,0.3c-8.9,0.9-15.8,1-24.5-1c19.4-4.2,35.5-5,50.7-19.5c17.7-16.9,25.5-41.9,25.4-65.9
		c-0.1-25.4-10.9-48.3-29.2-65.8c-1.2-1.2-2.5-2.4-3.8-3.5c-1.3-1.1-2.6-2.2-4-3.3c-1.4-1.1-2.7-2.1-4.1-3.1c-1.4-1-2.8-2-4.3-2.9
		c-1.5-0.9-2.9-1.8-4.4-2.7c-1.5-0.9-3-1.7-4.6-2.5c-1.5-0.8-3.1-1.5-4.7-2.2c-1.6-0.7-3.2-1.4-4.8-2c-1.6-0.6-3.2-1.2-4.9-1.8
		c-1.6-0.5-3.3-1.1-4.9-1.5c-1.7-0.5-3.3-0.9-5-1.3c-1.7-0.4-3.4-0.7-5.1-1c-1.7-0.3-3.4-0.6-5.1-0.8c-1.7-0.2-3.4-0.4-5.2-0.5
		c-1.7-0.1-3.4-0.2-5.2-0.3c-1.7,0-3.5,0-5.2,0c-32.7,0.8-62.7,17.9-84.3,41.7c-22.8,25-36,58.1-34.3,92.1
		c1.6,31.6,15.9,60.2,39.5,81.1c34.4,30.5,77,37.8,121.4,31.6c67.7-9.4,134.7-32.3,200.1-51.8c105.9-31.5,211.5-64.1,316.8-97.7
		c141-44.4,283.2-84.5,426.5-120.5C2073.8,2501.8,2324.9,2443.8,2569.2,2430.8z"/>
	<path fill="#C09A49" d="M2116.7,688.3c46.5-6.6,99.4,11.5,138.5,35.6c61.1,37.7,99,99.4,115.1,168.3c1.1,4.9,2.1,9.8,3,14.8
		c0.9,4.9,1.6,9.9,2.3,14.9c0.6,5,1.1,10,1.5,15c0.4,5,0.6,10,0.8,15c0.1,5,0.2,10,0,15.1c-0.1,5-0.3,10-0.7,15
		c-0.4,5-0.8,10-1.4,15c-0.6,5-1.3,10-2.2,14.9c-0.8,5-1.8,9.9-2.9,14.8c-1.1,4.9-2.3,9.8-3.6,14.6c-1.3,4.8-2.8,9.7-4.3,14.4
		c-1.6,4.8-3.2,9.5-5,14.2c-1.8,4.7-3.7,9.3-5.7,13.9s-4.2,9.1-6.4,13.6s-4.6,8.9-7.1,13.3c-2.5,4.4-5,8.7-7.7,12.9
		c-44.9,71.1-112.1,118.4-193.5,137.1c29.5,11.1,62,16.9,92.7,24.2c116.5,27.6,232.4,48,352.6,34.7
		c-84.6-118.4-168.2-267.4-164.3-417.9c2.8-2.7,16.1-1.6,20.6-1.6c4.4,25.7,7.1,51.6,12.4,77.2c19.8,96.1,59.1,184.3,114.3,265.3
		c16,23.5,33.2,51.1,54,70.5c66.4-10,135.3-39.3,189.1-79.5c62.1-46.4,106.3-108.4,116.8-186.4c8.7-64.3-6.1-129.7-45.9-181.4
		c-32.3-42-79.8-72.9-133-79.5c-48.9-6-93.2,6.6-131.7,36.9c-31.1,24.5-51.8,59-56.1,98.6c-3.2,29,2.1,58.7,21.2,81.7
		c12.1,14.6,28.8,25.9,48.1,27.6c16.7,1.5,34.7-4.4,47.4-15.4c11.9-10.2,17.6-24.6,18.5-40.1c0.7-11.3-1.5-21.3-9.4-29.8
		c-4.7-5-11.5-8.5-18.6-7.9c-18.8,1.6-13.1,17.5-21.3,28.8c-4,1.9-5.4,2.9-10,1.8c-6.8-1.6-15.3-6.3-18.2-12.8
		c-3.2-7.2-3.6-15.4-0.5-22.7c5.2-12.1,18.2-20,30.2-24.1c17-5.9,34-5,50,3.2c15.4,7.8,25.6,20.6,30.3,37.2
		c6.4,22.5,2.8,46.6-8.7,66.8c-0.8,1.4-1.7,2.9-2.5,4.3c-0.9,1.4-1.8,2.8-2.8,4.1c-1,1.4-1.9,2.7-3,4c-1,1.3-2.1,2.6-3.2,3.8
		c-1.1,1.2-2.2,2.5-3.4,3.7c-1.1,1.2-2.3,2.3-3.5,3.5c-1.2,1.1-2.4,2.2-3.7,3.3c-1.3,1.1-2.6,2.1-3.9,3.1c-1.3,1-2.7,2-4,2.9
		c-1.4,0.9-2.8,1.8-4.2,2.7c-1.4,0.9-2.8,1.7-4.3,2.5c-1.5,0.8-2.9,1.5-4.4,2.2s-3,1.4-4.5,2c-1.5,0.6-3.1,1.2-4.6,1.8
		s-3.1,1.1-4.7,1.5c-1.6,0.5-3.2,0.9-4.8,1.3c-26.5,6.4-54.4,0.2-77.4-14c-27.2-16.8-44.6-45.3-51.3-76.1
		c-9.8-44.7,0.6-90.4,25.2-128.5c1.8-2.7,3.6-5.4,5.6-8c1.9-2.6,3.9-5.2,5.9-7.8c2-2.5,4.1-5,6.3-7.4c2.2-2.4,4.4-4.8,6.7-7.1
		c2.3-2.3,4.6-4.6,7-6.8c2.4-2.2,4.8-4.3,7.3-6.4c2.5-2.1,5.1-4.1,7.7-6.1c2.6-2,5.2-3.9,7.9-5.7c2.7-1.8,5.4-3.6,8.2-5.3
		c2.8-1.7,5.6-3.3,8.5-4.9c2.9-1.6,5.8-3,8.7-4.4c2.9-1.4,5.9-2.7,8.9-4c3-1.3,6-2.5,9.1-3.6c3.1-1.1,6.1-2.2,9.3-3.1
		c3.1-1,6.2-1.8,9.4-2.7c3.2-0.8,6.3-1.5,9.5-2.2c58-12,119.9,2.3,168.9,34.9c56.5,37.6,91.7,96,104.7,162
		c29.3,148.9-56.8,280.3-188.8,343.4c-21.8,10.4-45,20-68.1,27.2c-12.4,3.9-25.6,6.5-37.8,11c-4.1,1.5-7.7,2.5-10.3,6.3
		c6.8,18.2,57.8,61.8,74.4,75.6c83.7,69.5,187.2,103.4,296,92.9c59.9-5.8,116.6-27.6,155.2-75.6c30.1-37.3,49-86.7,43.5-134.9
		c-4.4-38.1-23.7-71.6-53.9-95.2c-1.7-1.4-3.5-2.7-5.3-4c-1.8-1.3-3.6-2.5-5.5-3.7c-1.9-1.2-3.7-2.3-5.6-3.4
		c-1.9-1.1-3.8-2.1-5.8-3.1c-2-1-3.9-1.9-6-2.8c-2-0.9-4-1.7-6.1-2.5c-2.1-0.8-4.1-1.5-6.2-2.2c-2.1-0.7-4.2-1.3-6.3-1.9
		c-2.1-0.6-4.3-1.1-6.4-1.6c-2.1-0.5-4.3-0.9-6.5-1.3c-2.2-0.4-4.3-0.7-6.5-0.9s-4.4-0.5-6.6-0.6c-2.2-0.2-4.4-0.3-6.6-0.3
		c-2.2,0-4.4,0-6.6,0c-2.2,0.1-4.4,0.2-6.6,0.4c-2.2,0.2-4.4,0.4-6.6,0.7c-33.1,4.3-64.1,23.8-84.1,50.3
		c-19.1,25.2-29.9,59.7-25,91.2c0.2,1.6,0.5,3.2,0.9,4.8c0.3,1.6,0.7,3.2,1.1,4.8c0.4,1.6,0.9,3.1,1.3,4.7c0.5,1.5,1,3.1,1.6,4.6
		c0.6,1.5,1.2,3,1.8,4.5c0.6,1.5,1.3,3,2,4.4c0.7,1.5,1.5,2.9,2.2,4.3c0.8,1.4,1.6,2.8,2.5,4.2c0.9,1.4,1.7,2.7,2.7,4.1
		c0.9,1.3,1.9,2.6,2.9,3.9c1,1.3,2,2.6,3.1,3.8c1.1,1.2,2.1,2.4,3.2,3.6c1.1,1.2,2.3,2.3,3.4,3.5c1.2,1.1,2.4,2.2,3.6,3.3
		c1.2,1.1,2.5,2.1,3.8,3.1c1.3,1,2.6,2,3.9,2.9c18.2,12.8,41.6,19.6,63.7,15.4c21.4-4,40.3-17.7,51.9-36
		c10.7-16.9,14.9-37.2,10.1-56.7c-4.1-16.5-14-31.8-28.9-40.4c-21-12.1-44-8.2-66-1.8c9.4-10.4,18.4-18.1,30.5-25.1
		c22.5-1.3,43.1,2.8,60.7,17.7c18.2,15.4,28,37.8,29.6,61.4c1.7,26.9-7.1,54.2-25.6,73.9c-19.8,21.2-49.2,34.3-78.2,34.6
		c-30.6,0.2-59.2-13.3-80.5-34.9c-24.1-24.6-36-59.1-35.6-93.4c0-2.5,0.1-5,0.3-7.4c0.2-2.5,0.4-5,0.7-7.4c0.3-2.5,0.6-4.9,1-7.4
		c0.4-2.5,0.9-4.9,1.4-7.3c0.5-2.4,1.1-4.8,1.7-7.2s1.3-4.8,2.1-7.2c0.8-2.4,1.6-4.7,2.4-7c0.9-2.3,1.8-4.6,2.8-6.9
		c1-2.3,2-4.5,3.1-6.8c1.1-2.2,2.2-4.4,3.4-6.6c1.2-2.2,2.4-4.3,3.7-6.4c1.3-2.1,2.6-4.2,4.1-6.3c1.4-2,2.9-4.1,4.4-6
		c1.5-2,3-3.9,4.6-5.8c1.6-1.9,3.2-3.8,4.9-5.6c1.7-1.8,3.4-3.6,5.2-5.4c29.3-28.5,72-44.6,112.8-43.4c2.8,0.1,5.6,0.3,8.4,0.5
		c2.8,0.2,5.6,0.5,8.3,0.9c2.8,0.4,5.5,0.8,8.3,1.3c2.8,0.5,5.5,1.1,8.2,1.7c2.7,0.6,5.4,1.3,8.1,2.1c2.7,0.8,5.4,1.6,8,2.5
		c2.6,0.9,5.3,1.9,7.9,2.9c2.6,1,5.2,2.1,7.7,3.3c2.5,1.2,5.1,2.4,7.5,3.7c2.5,1.3,4.9,2.6,7.4,4c2.4,1.4,4.8,2.9,7.1,4.4
		s4.7,3.1,6.9,4.7c2.3,1.6,4.5,3.3,6.7,5.1c2.2,1.8,4.3,3.6,6.4,5.4c2.1,1.9,4.1,3.8,6.1,5.7c2,2,4,4,5.9,6
		c31.1,33.7,43.7,77.4,41.5,122.7c-2.7,55.8-28.4,112.9-70.3,150.2c-65.4,58.1-150.5,69.4-234.7,63.7
		c-138.9-9.5-243.1-90.6-331.1-191.4c-16.3,2-32.6,3.8-49,5c-173.4,20.9-420.8-56.2-585.9-111c13.2,26.4,21.1,52.4,22.2,82.1
		c1.7,44.5-8.6,88.7-39.8,121.8c-30.3,32.2-70.5,48.7-114.5,50.1c-43.5,1.3-89.2-10.9-121.1-41.8c-26.4-25.5-44.2-63.3-44.8-100.2
		c-0.4-28.3,9.7-55.3,29.8-75.5c10.9-11,28.8-23.3,45.1-22.4c4,0.2,8.4,1.8,11,4.9c3.6,4.3,4.3,8.7,3.7,14.1
		c-1.4,11-30.9,17.8-39.6,25.2c-14.8,12.6-22.2,30.5-23.1,49.6c-1.4,29,9.8,56.8,29.8,77.8c25.6,26.8,63.1,38.8,99.4,39.7
		c37.7,0.9,74.1-11.3,101.3-38c23.9-23.4,35.7-53.9,36-87.2c0.2-34.7-6.6-81.1-32.8-106.3c-21.9-21.1-88.7-36.7-119.4-47.3
		c-232-80.2-471.6-141.3-719.3-113.7c-58.3,6.5-118.2,16.7-174.4,33.4c-19.7,5.9-70.9,28.6-84.7,28.3c-6.3-0.2-10.3-2.3-14.6-6.9
		c-1.7-5.3-2.6-8.2-0.6-13.6c3.1-8.2,12.8-15.1,20.5-18.5c40-18.2,98-31.3,141.2-40.6c88.6-19,175.5-23.7,265.9-21.3
		c233.4,6.2,423.6,62.8,641.8,139.9c-3-3.7-6-7.3-9.1-10.9C1702,959.1,1337,822.9,1070.1,787c-48.7-6.3-97.7-10.1-146.8-11.5
		c-20.5-0.4-68.1,2.8-85.4-0.2c-4.7-0.8-8.3-4.1-10.4-8.3c-2.6-5-2.3-13.6,0.8-18.4c2.8-4.5,8.2-6.7,13.1-7.6
		c31.4-6.1,86.9-1.7,119.9-0.2c268.9,12.5,603.4,130.7,820.6,290c36.1,26.5,69.9,57.2,101,89.5c15.9,16.4,51.2,66.4,66.6,75.2
		c16.1,9.2,37.7,13.8,55.3,20c61.3,21.6,75.5,33.8,143.7,12.8c70.5-21.7,133.8-76.1,167.6-141.3c33.2-64.1,41.4-141.7,19.3-210.7
		c-18.4-57.4-57-107.5-111.3-134.8c-44.6-22.4-98.3-31.6-146.4-15.1c-2.7,1-5.5,2-8.2,3.1c-2.7,1.1-5.4,2.2-8,3.5
		c-2.6,1.2-5.2,2.5-7.8,3.9c-2.6,1.3-5.1,2.8-7.6,4.2c-2.5,1.5-5,3-7.4,4.6c-2.4,1.6-4.8,3.2-7.2,4.9c-2.4,1.7-4.7,3.5-6.9,5.3
		c-2.3,1.8-4.5,3.7-6.7,5.6c-2.2,1.9-4.3,3.9-6.4,5.9c-2.1,2-4.1,4.1-6.1,6.2c-2,2.1-3.9,4.3-5.8,6.5c-1.9,2.2-3.7,4.5-5.5,6.8
		c-1.8,2.3-3.5,4.7-5.1,7.1c-1.6,2.4-3.2,4.8-4.8,7.3c-1.5,2.5-3,5-4.4,7.5c-1.4,2.5-2.8,5.1-4,7.7c-12.6,25.8-20.1,60.1-10,87.7
		c7.4,20.2,23.1,36.2,42.5,45.3c17.7,8.3,39.7,13.4,58.4,5.8c13.8-5.6,24.5-17.5,29.6-31.4c4.4-12.1,5-27.1-1.2-38.6
		c-3.4-6.3-8.6-10.1-15.7-11.6c-26.3-5.6-26.8,23.3-43.7,32.4c-3.3,1.8-6.6,2-9.9,0c-4.9-2.9-9.4-11.6-11-17
		c-2.5-8.1-0.6-17.3,3.7-24.5c8.5-14.4,24.6-21.6,40.3-25c2-0.4,4.1-0.8,6.1-1c2.1-0.2,4.1-0.4,6.2-0.4c2.1,0,4.1,0,6.2,0.2
		c2.1,0.2,4.1,0.5,6.1,0.8c2,0.4,4,0.9,6,1.5c2,0.6,3.9,1.3,5.8,2.1c1.9,0.8,3.8,1.7,5.6,2.6c1.8,1,3.6,2,5.3,3.2
		c15.6,10.3,25.5,27.2,28.7,45.5c0.2,1.5,0.4,2.9,0.6,4.4c0.2,1.5,0.3,2.9,0.4,4.4c0.1,1.5,0.1,3,0.2,4.4c0,1.5,0,3-0.1,4.4
		c-0.1,1.5-0.2,3-0.3,4.4c-0.1,1.5-0.3,2.9-0.5,4.4c-0.2,1.5-0.5,2.9-0.7,4.4c-0.3,1.4-0.6,2.9-1,4.3c-0.4,1.4-0.8,2.9-1.2,4.3
		s-0.9,2.8-1.4,4.2c-0.5,1.4-1,2.8-1.6,4.1c-0.6,1.4-1.2,2.7-1.8,4s-1.3,2.6-2,3.9c-0.7,1.3-1.5,2.6-2.2,3.8
		c-0.8,1.3-1.6,2.5-2.4,3.7c-0.8,1.2-1.7,2.4-2.6,3.6c-0.9,1.2-1.9,2.5-2.9,3.7c-1,1.2-2,2.4-3.1,3.5c-1.1,1.1-2.2,2.3-3.3,3.4
		c-1.1,1.1-2.3,2.2-3.4,3.2c-1.2,1-2.4,2-3.6,3s-2.5,1.9-3.8,2.8c-1.3,0.9-2.6,1.8-3.9,2.6c-1.3,0.8-2.7,1.6-4,2.4
		c-1.4,0.8-2.7,1.5-4.1,2.2c-1.4,0.7-2.8,1.4-4.2,2c-1.4,0.6-2.9,1.2-4.3,1.8c-1.5,0.6-2.9,1.1-4.4,1.6c-1.5,0.5-3,0.9-4.5,1.3
		c-1.5,0.4-3,0.8-4.6,1.1c-1.5,0.3-3.1,0.6-4.6,0.9c-1.5,0.2-3.1,0.5-4.7,0.6c-29.6,3.6-62.4-7.6-85.7-26
		c-25.7-20.4-39-49.5-42.3-81.6c-4.4-43.6,11.8-87.4,39.4-120.8C2005.2,721.1,2055.6,694.1,2116.7,688.3z"/>
	<path fill="#3E3234" d="M3460.3,2047c-0.5-2.2-1.2-3.4-2.3-5.2c-4.5-2-6.8-2.3-11.6-0.4c-6.4,2.5-10.8,8.5-13.9,14.5
		c-8.2,15.4-13.5,33.9-20.3,50.2c-24.9,59.3-64.7,153.6-124.4,184c-10.1,5.1-23.3,10-34.6,5.6c-8.3-3.3-12.9-10.9-15.8-19
		c-23-65,33.9-199.3,59-263.1c11-28,26.4-58.6,28.5-88.9c1.4-20.4-6.6-41.5-25.7-51.1c-17.1-8.6-38.4-6.3-55.9-0.1
		c-26.9,9.6-47,30.8-58.8,56.3c-11.1,24.1-12.7,50.7-15.7,76.7c-10.5,91.3-18.1,154.1-76.2,230.1c-17.3,22.6-40.8,48.6-67.9,59.1
		c-11.5,4.5-24.8,6-36.5,1.1c-9.6-4-14.8-13-18.7-22.2c-0.2-0.7-0.4-1.4-0.6-2.2c-15.4-64.1,32.4-169.1,57.1-228.9
		c12.2-29.5,27.5-61.4,32.1-93.2c3-21.1,1.1-46.1-18.9-58.3c-16.2-9.9-36.5-9.1-54.2-4.2c-25.5,7-51.3,24.9-64.2,48.1
		c-10.9,19.5-11.7,46.2-14.5,67.9c-11.5,88.5-21.5,138.4-74.4,212.7c-20.9,29.4-48.7,58-84.2,68.7c-9.6,2.9-24.1,5.2-33.2-0.5
		c-6.7-4.1-9.1-11.8-10-19.2c-9.9-85.1,104-303.8,38.1-362c-17.3-15.3-45.1-18-67.4-15.9c-54.1,5.1-92.2,38.4-125.2,79
		c-42.1,51.9-71.2,108.6-102.2,167.4c18.5-63.6,65.9-188.2,32.7-248.9c-9.5-17.3-25.1-27.6-43.7-32.8c-28.6-8.1-57.8-1.4-82.9,13.4
		c-25.9,15.3-46.2,38.4-65.7,60.9c-66.8,77.1-105.5,147.5-156.4,234.5c6.7-29.8,14.6-59.3,23.8-88.4c9.2-29.1,19.5-57.8,31.1-86.1
		c8.9-21.1,41.4-79.1,44.5-94.9c0.9-4.7,0.2-8.1-2.2-12.2c-7.1-12.2-23.7-22.4-37.3-25.5c-17.6-4.1-35.3,1.7-50.1,11.3
		c-59.5,38.7-89.7,156.4-102.8,224.1c-4.5,23.4-6.1,50.4-13.3,72.9c-10.6,33.2-45.9,83.2-75.3,102.9c-13.9,9.3-32.7,16.5-49.8,13.1
		c-7.7-1.5-15.5-5.4-19.9-12c-18.7-28.2-4.6-85.6,2.9-115.7c11.6-47.2,28.6-94.4,46.9-139.3c8.6-20.9,21.5-43.1,27.3-64.7
		c2.3-8.4,2.2-16.9-2.6-24.4c-8.5-13.4-29.4-22-44.4-24.5c-13.8-2.3-27.6,0-38.8,8.7c-42.9,33.2-57,131.4-78.4,180.7
		c-22.1,50.9-104.5,180.3-167.2,174c-1.6-0.2-3.3-0.4-4.9-0.8c-1.6-0.3-3.2-0.8-4.8-1.3c-1.6-0.5-3.1-1.1-4.6-1.7
		c-1.5-0.7-3-1.4-4.4-2.2c-1.4-0.8-2.8-1.7-4.2-2.6c-1.3-0.9-2.6-2-3.9-3c-1.2-1.1-2.4-2.2-3.6-3.4c-1.1-1.2-2.2-2.4-3.2-3.7
		c-18.3-23.9-13.9-65.6-9.4-93.5c12-74.4,52.6-157.8,114.7-202.9c21.2-15.4,50.5-31.1,77.4-26.6c18.8,3.2,31.6,15.8,41.7,31.1
		c1.6,2.4,3.2,4.9,4.7,7.4c7.9-18.1,12.1-34.3,5-53.8c-6.6-18-20.8-30.8-37.9-38.6c-36.3-16.3-78-7.6-113.4,6.7
		c-82,33.2-142.3,108.5-176.1,188.4c-8.3,19.8-15.8,40.9-19.9,62.1c-9.4,49.4-5.7,64.3-45.3,101.5c-15.2,14.3-32.5,26.8-51.9,34.9
		c-23.6,9.7-55.4,15.4-79.3,4.6c-16.1-7.3-26.3-21.2-32.1-37.5c-18.1-50.8-12.1-119.1-2.6-171.1c23.6-14.8,44.9-35.7,64.5-55.4
		c81.7-81.7,138.2-177.6,164.4-290.8c11.1-47.8,16.1-137.4-11.5-180.3c-6.3-9.8-15.9-17.1-27.6-19.2c-7.2-1.3-14.6-0.4-21.9,0.3
		c-83.5,30.6-129.8,116.8-165.3,193.6c-61.1,132.1-152.5,423.5-100.4,563.5c11.2,30.2,30.9,52.9,60.3,66.4
		c40.1,18.4,90.5,14.2,130.9-1.1c46.7-17.7,83.1-49.4,112.5-89c10,35.6,26.9,68.1,60,87.4c1.6,0.9,3.2,1.8,4.8,2.7
		c1.6,0.8,3.2,1.7,4.9,2.4c1.7,0.8,3.3,1.5,5,2.2c1.7,0.7,3.4,1.3,5.1,1.9c1.7,0.6,3.5,1.1,5.2,1.7c1.8,0.5,3.5,1,5.3,1.4
		c1.8,0.4,3.6,0.8,5.3,1.1c1.8,0.3,3.6,0.6,5.4,0.9c1.8,0.2,3.6,0.4,5.4,0.6c1.8,0.1,3.6,0.2,5.4,0.3s3.6,0.1,5.5,0
		c1.8,0,3.6-0.1,5.5-0.2c1.8-0.1,3.6-0.3,5.4-0.5c1.8-0.2,3.6-0.5,5.4-0.8c1.8-0.3,3.6-0.7,5.4-1.1c1.8-0.4,3.5-0.8,5.3-1.3
		c69.5-19.5,122.7-96.1,159.6-153.7c-5.8,39.4-7.5,84.4,16.9,118.4c13.6,19,34,30.3,57,33.7c41.3,6.1,83.1-11.3,115.1-36.4
		c20.3-15.9,36.2-35.3,50.1-56.8c0.8,28.7,2,63.8,24.6,84.8c11.2,10.4,29.2,19,44.8,17.9c7.6-0.5,14.7-3.7,19.5-9.7
		c13.9-17.4,11.1-72.6,20.5-98.2c24.3-65.9,120-209.2,173.6-253.8c12.1-10.1,26.7-19.1,42.4-21.9c6.7-1.2,14.2-1,19.6,3.8
		c8.4,7.6,8.2,23,7.6,33.3c-3.7,61.9-38.4,150.6-56,211.4c-7.1,24.4-14.7,49.6-16.6,75c-1.1,14.8-0.8,31.7,9.6,43.4
		c11,12.3,31.4,20.2,47.6,21c8.7,0.4,15.7-1.2,22-7.4c15.4-14.9,40.5-81.6,51.9-104.9c25.8-53.1,134.4-258.8,196-258.1
		c5.2,0.1,10.2,1.7,13.6,5.8c11.9,14.5,2.3,51.9-1.2,68.5c-13.6,64-62.3,199.5-23.2,257.5c12.1,18,31.8,27.4,52.7,31.1
		c44.3,7.7,87-8.2,122.5-34c29.9-21.7,57.4-47.6,75.4-80.2c6.6,36.5,13.7,69,46,92.4c27.2,19.6,64.5,26,97.2,20.2
		c46.7-8.3,84.2-42.8,110.5-80.5c6.7-9.7,12.7-19.8,18.1-30.2c7.1,35.6,15.5,71,48,92.4c26.1,17.2,61.6,21.7,91.8,14.6
		c49.1-11.5,84.9-58.5,109.6-99.5c7.6-12.6,14.8-25.4,21.6-38.4c6.7-13.1,13-26.3,18.8-39.9c5.8-13.5,11.1-27.2,15.9-41.1
		c4.8-13.9,9.2-27.9,13-42.1C3457.5,2071,3462.4,2056.8,3460.3,2047z M1432.9,1587.4c6.1-0.2,11.9-0.6,16.6,4.1
		c6.4,6.3,7,17.6,7.9,26.1c13.3,122.5-92.1,274.5-165.9,365.8l-14.4,17.5C1298.1,1910,1367.6,1641.2,1432.9,1587.4z"/>
	<path fill="#3E3234" d="M3340.9,2412.7c9.6-0.6,19.2-1.1,28.8-0.1c11.2,1.2,21.7,3.9,31.6,9.4c20.7,11.6,40,26.9,59.4,40.6
		c39,27.3,77.7,55,116,83.3l125.5,90.4c25.6,18.7,56.9,37.2,76.6,62.4c19.4,24.7,27,55.5,22.9,86.5c-3.7,27.8-86.6,221.3-104,252.6
		c-6.1,11-13.2,20.9-23.6,28.2c-29.6,20.8-64.2,23.4-98.7,16.7c3.1,6.9,5.9,14,7.5,21.5c5,23.2,1.1,51.6-12.7,71.2
		c-18.7,26.6-72.4,62.9-99.1,84.1c-42.2,33.5-84.2,67.3-126.1,101.3c-22.3,18.1-56.6,51.3-79.2,65.3c-12.3,7.6-27.6,10.5-41.6,12.9
		c-6.9,0.7-14.3,0.8-21.2,0.7c-18.4-0.2-39.2-5.4-55.4-14.2c-18.5-10.1-36.1-24.1-53.5-36.1c-37.4-25.8-74.6-51.9-111.6-78.3
		l-127.1-88.7c-31.3-21.6-69.6-43.2-95.3-71.4c-9.7-10.7-12.9-27.5-11.6-41.4c0.2-2.2,0.5-4.4,0.9-6.5c0.4-2.2,0.8-4.3,1.4-6.5
		c0.5-2.1,1.2-4.2,1.9-6.3c0.7-2.1,1.5-4.1,2.4-6.2c0.9-2,1.8-4,2.8-6c1-2,2.1-3.9,3.3-5.7c1.2-1.9,2.4-3.7,3.7-5.5
		c1.3-1.8,2.7-3.5,4.1-5.2c24.6-28,87.7-71.7,120.5-97.3c82.6-64.4,165.4-128.3,245.4-196.1l-0.2-4.6c-0.5-11.2-0.5-20.5,2.7-31.3
		c10.3-34.1,110.5-262,124.5-280.6C3280.8,2426.7,3311.5,2417.1,3340.9,2412.7z"/>
	<path fill="#FEFEFE" d="M3307.8,2458.7c5.1,0.2,9,0.7,13.5,3c19.7,10.2,38,26,55.9,39.3l86.5,63.9l8.9-8.1c6.6-1.6,8-0.6,14,2.8
		c17.7,10.3,81.7,51.7,86,69.2c1.1,4.6,1.8,8.2,4.8,12.2c5.7,7.6,18.8,14.6,26.6,20.2c27.6,19.7,112.5,73.9,127.1,96.1
		c5.4,8.2,4.6,18.5,2.6,27.7c-7.2,33.7-37,90.7-51.6,124.3c-17.6,40.5-34,87.3-56,125.2c-5.1,8.8-9.7,13.7-18.1,19.4
		c-8.5,2.4-17,4.1-25.7,1.6c-19.6-5.6-47.5-30.5-65.4-42.6c-61.1-41.2-121.4-83.3-181.8-125.5c-45.5-31.8-91.8-63.1-135.4-97.4
		c-8.5-6.7-23.6-17.8-28-27.6c-4.7-10.5,0.2-28,3.8-38.2c13.8-38.9,33.8-77.2,50.3-115.1c16.2-37,39.2-102.6,61-133.9
		C3292.7,2466.4,3298.4,2463.2,3307.8,2458.7z"/>
	<path fill="#B35473" d="M3310.6,2480.4c8.7,1.3,14.2,3.5,21.6,8.1c31.2,19.6,60.5,43,90.6,64.3l211.2,149
		c17.6,12.4,70.5,44.2,81.1,58.6c0.7,1,1.2,2.2,1.8,3.3l2.6,1.6c0.9,9.6-0.8,18.3-3.8,27.4c-8.6,26.9-23.5,54-35,79.9
		c-20.1,45.3-39.1,91.1-59.6,136.2c-6.3,13.9-10.8,24.6-25.9,30.2c-2.3-0.2-4.6-0.3-6.8-0.8c-16.2-2.9-387.6-256.7-402.3-276.9
		c-0.4-5.8-0.1-10.6,1.1-16.3c5.9-28.5,92.3-222.2,109.5-251.4C3300.4,2487.8,3304.9,2484.2,3310.6,2480.4z"/>
	<path fill="#FEFEFE" d="M3318,2509.1c17.5,8.6,32.8,22.4,48.3,34.1c17.4,12.8,35,25.4,52.8,37.8l276.1,192.3
		c-22.1,55.5-47.3,110.6-71.9,165.1c-11,24.3-20.4,50-33.1,73.5c-22.3-13.3-42.7-31.2-64.7-45.4c-103.8-66.9-215.8-140.4-313.2-216
		c6.1-29.9,24.3-61.6,36.8-89.4C3271.8,2610.3,3294.4,2559.5,3318,2509.1z"/>
	<path fill="#FEFEFE" d="M3142.6,2791c26.9,29.9,64,51.4,96.3,75c76.4,55.1,153.2,109.7,230.4,163.8c22.5,15.7,48.8,28.6,69.3,46.7
		c11.3,10,15.5,20.9,15.9,35.9c0.6,20.9-10.1,32.7-23.8,46.7c-17.5,17.8-38.3,33.3-57.5,49.1l-98.9,80.9
		c-26.2,21.4-79.6,69.9-106.9,84.8c-17,9.3-37,9.2-55.7,9.4c-17.4-3.4-31.8-10.1-46.9-19.3c-22.3-13.6-42.9-30.2-64.1-45.3
		l-117.1-82.8c-36.2-25.6-152.1-97.9-175.4-127c-0.9-1.1-1.7-2.1-2.4-3.3c-0.7-1.1-1.4-2.3-2.1-3.5c-0.6-1.2-1.2-2.4-1.7-3.7
		c-0.5-1.3-0.9-2.5-1.3-3.9c-0.4-1.3-0.7-2.6-0.9-4c-0.2-1.3-0.4-2.7-0.5-4c-0.1-1.4-0.1-2.7-0.1-4.1c0-1.4,0.2-2.7,0.3-4.1
		c1.4-10.1,7.5-16.4,14.7-23c47.9-44.6,110.7-86.4,162.9-127.8C3033.1,2883,3085.8,2834.4,3142.6,2791z"/>
	<path fill="#3E3234" d="M3184.7,3040.4c28.8,18.1,67.7,41.4,92.7,64.1c-28.4,18-53.3,40.7-80.9,59.8c-13.3-0.5-77.2-49.1-89.9-61
		C3129.6,3079.9,3158.6,3060.3,3184.7,3040.4z"/>
	<path fill="#3E3234" d="M3164.6,2880.5c13.8,1.3,77.7,47.6,95.5,58.6c-23.1,23.2-52.2,42.4-77.4,63.5c-0.8,0.2-1.7,0.3-2.6,0.3
		c-13.8-0.8-78.9-50.7-91.1-62.2C3111.6,2917.6,3137.7,2898.3,3164.6,2880.5z"/>
	<path fill="#3E3234" d="M3281.1,2960.3c17.3,0.4,76.4,47.7,91.7,60.4c-24.4,22.7-51.6,43.2-78.4,63c-22.5-5.8-72.6-44.9-92.1-61.4
		C3227.2,2999.2,3253.6,2979.8,3281.1,2960.3z"/>
	<path fill="#3E3234" d="M3390.7,3042.4c1.9-0.2,3.7-0.1,5.6,0.3c15.9,3.7,77.9,47.7,85.8,61.8c-5.7,11.6-61.2,52.8-74.5,62.8
		c-23.2-11.3-74.7-50.2-94.1-68.3C3339.2,3080,3364.6,3060.8,3390.7,3042.4z"/>
	<path fill="#3E3234" d="M3290.1,3122.7c28.8,5.6,73.6,41.1,96.9,60.3c-22.9,22.7-51,41.9-76.7,61.4l-3.6,1.6
		c-17.1-2.5-77.1-49.4-90.4-63.6C3238.8,3160.9,3265.6,3142.1,3290.1,3122.7z"/>
	<path fill="#B35473" d="M3070.1,2958.6c32.4,16.3,65.9,41.6,93.6,64.9c-23,23-51.5,43.5-76.8,64.2l-2.5,0.3
		c-21.3-7.6-52.3-33.2-70.3-47.9c-6.1-5-16.8-12.9-17.6-20.8C3010.2,3001.3,3050.7,2973.5,3070.1,2958.6z"/>
	<path fill="#F0C778" d="M3083.4,3128.3c22.1,5.6,73.5,43.6,92.5,58.8c-23.8,24-54,45.4-80.5,66.4c-0.7,0.1-1.3,0.2-2,0.2
		c-14.4-0.1-76.8-46.8-88.9-58.4C3022.7,3169.1,3057.3,3146.6,3083.4,3128.3z"/>
	<path fill="#F0C778" d="M3194.3,3208.7c1,0,2-0.1,3.1-0.1c12.5,0.5,71.9,42.1,81.2,53.6c3.2,4,4.9,5.9,4.3,11.2
		c-13.9,17.4-55.4,46.8-75,61.2c-13-2.4-25.8-12.8-36.6-20.1c-13.1-9-48.4-30-51.2-44.9C3133.9,3245.4,3170,3221.8,3194.3,3208.7z"
		/>
	<path fill="#B35473" d="M2968.3,3040.4c17.5,10.6,80,46.4,89.4,58.9c2.8,3.8,4.7,7.8,3.3,12.6c-4.3,15.8-66,55-82,66.3
		c-3.6,0-2.6,0.3-5.8-0.8c-14.9-5-84.6-56.7-90.5-69C2887.9,3095.9,2953.6,3050.4,2968.3,3040.4z"/>
</g>
</svg>
