<svg width="16" height="16" viewBox="0 0 16 16" fill="none" xmlns="http://www.w3.org/2000/svg">
<path fill-rule="evenodd" clip-rule="evenodd" d="M4.66667 4.875C4.66667 4.52938 4.96533 4.25 5.33333 4.25C5.70133 4.25 6 4.52938 6 4.875C6 5.22062 5.70133 5.5 5.33333 5.5C4.96533 5.5 4.66667 5.22062 4.66667 4.875ZM7.33333 4.875C7.33333 4.52938 7.632 4.25 8 4.25C8.368 4.25 8.66667 4.52938 8.66667 4.875C8.66667 5.22062 8.368 5.5 8 5.5C7.632 5.5 7.33333 5.22062 7.33333 4.875ZM3.33333 6.125V4.25C3.33333 3.905 3.63267 3.625 4 3.625H12C12.3673 3.625 12.6667 3.905 12.6667 4.25V6.125H3.33333ZM12.6667 11.75C12.6667 12.095 12.3673 12.375 12 12.375H4C3.63267 12.375 3.33333 12.095 3.33333 11.75V7.375H12.6667V11.75ZM12 2.375H4C2.89733 2.375 2 3.21625 2 4.25V6.125V7.375V11.75C2 12.7837 2.89733 13.625 4 13.625H12C13.1027 13.625 14 12.7837 14 11.75V7.375V6.125V4.25C14 3.21625 13.1027 2.375 12 2.375Z" fill="#505867"/>
<mask id="mask0_595_722" style="mask-type:luminance" maskUnits="userSpaceOnUse" x="2" y="2" width="12" height="12">
<path fill-rule="evenodd" clip-rule="evenodd" d="M4.66667 4.875C4.66667 4.52938 4.96533 4.25 5.33333 4.25C5.70133 4.25 6 4.52938 6 4.875C6 5.22062 5.70133 5.5 5.33333 5.5C4.96533 5.5 4.66667 5.22062 4.66667 4.875ZM7.33333 4.875C7.33333 4.52938 7.632 4.25 8 4.25C8.368 4.25 8.66667 4.52938 8.66667 4.875C8.66667 5.22062 8.368 5.5 8 5.5C7.632 5.5 7.33333 5.22062 7.33333 4.875ZM3.33333 6.125V4.25C3.33333 3.905 3.63267 3.625 4 3.625H12C12.3673 3.625 12.6667 3.905 12.6667 4.25V6.125H3.33333ZM12.6667 11.75C12.6667 12.095 12.3673 12.375 12 12.375H4C3.63267 12.375 3.33333 12.095 3.33333 11.75V7.375H12.6667V11.75ZM12 2.375H4C2.89733 2.375 2 3.21625 2 4.25V6.125V7.375V11.75C2 12.7837 2.89733 13.625 4 13.625H12C13.1027 13.625 14 12.7837 14 11.75V7.375V6.125V4.25C14 3.21625 13.1027 2.375 12 2.375Z" fill="white"/>
</mask>
<g mask="url(#mask0_595_722)">
</g>
</svg>
