<svg width="24" height="30" viewBox="0 0 24 30" fill="none" xmlns="http://www.w3.org/2000/svg">
<path d="M0.0563712 6.82935C0.0838755 6.7815 0.120558 6.73954 0.164314 6.70589C0.208071 6.67224 0.25804 6.64755 0.311356 6.63326C0.364673 6.61896 0.420287 6.61533 0.475009 6.62258C0.529731 6.62983 0.582484 6.6478 0.630242 6.67548L2.54669 7.78226C2.64316 7.83787 2.71358 7.92952 2.74246 8.03705C2.77135 8.14458 2.75634 8.25918 2.70073 8.35565C2.64512 8.45211 2.55346 8.52253 2.44593 8.55141C2.3384 8.5803 2.2238 8.56529 2.12734 8.50968L0.210887 7.40323C0.162974 7.37578 0.120954 7.33913 0.0872392 7.2954C0.0535242 7.25167 0.0287783 7.20171 0.0144216 7.14839C6.48645e-05 7.09507 -0.00361999 7.03944 0.0035789 6.98469C0.0107778 6.92994 0.0287186 6.87715 0.0563712 6.82935ZM11.8883 3.05258C11.9995 3.05258 12.1062 3.0084 12.1848 2.92975C12.2635 2.85111 12.3077 2.74445 12.3077 2.63323V0.419355C12.3077 0.308135 12.2635 0.20147 12.1848 0.122826C12.1062 0.0441819 11.9995 0 11.8883 0C11.7771 0 11.6704 0.0441819 11.5918 0.122826C11.5131 0.20147 11.469 0.308135 11.469 0.419355V2.63258C11.4689 2.68771 11.4797 2.74231 11.5007 2.79326C11.5217 2.84421 11.5526 2.89052 11.5916 2.92953C11.6305 2.96854 11.6768 2.99948 11.7277 3.0206C11.7786 3.04171 11.8332 3.05258 11.8883 3.05258ZM2.12669 18.8113L0.210887 19.9177C0.114426 19.9734 0.0440056 20.065 0.015119 20.1725C-0.0137677 20.2801 0.00124524 20.3947 0.0568551 20.4911C0.112465 20.5876 0.204116 20.658 0.311647 20.6869C0.419178 20.7158 0.533781 20.7008 0.630242 20.6452L2.54669 19.5384C2.64316 19.4828 2.71358 19.3911 2.74246 19.2836C2.77135 19.1761 2.75634 19.0615 2.70073 18.965C2.64512 18.8685 2.55346 18.7981 2.44593 18.7692C2.3384 18.7403 2.2238 18.7554 2.12734 18.811L2.12669 18.8113ZM23.5657 19.9177L21.6493 18.8113C21.6015 18.7838 21.5488 18.7659 21.4941 18.7587C21.4395 18.7516 21.3839 18.7553 21.3307 18.7696C21.2774 18.7839 21.2275 18.8085 21.1838 18.8421C21.1401 18.8757 21.1034 18.9176 21.0759 18.9653C21.0484 19.0131 21.0305 19.0658 21.0233 19.1205C21.0162 19.1751 21.0198 19.2307 21.0342 19.2839C21.0485 19.3372 21.0731 19.3871 21.1067 19.4308C21.1403 19.4745 21.1822 19.5112 21.2299 19.5387L23.1464 20.6452C23.1942 20.6727 23.2469 20.6905 23.3016 20.6977C23.3563 20.7049 23.4118 20.7012 23.4651 20.6868C23.5183 20.6725 23.5683 20.6479 23.612 20.6143C23.6557 20.5806 23.6924 20.5388 23.7199 20.491C23.7475 20.4432 23.7653 20.3904 23.7725 20.3358C23.7796 20.2811 23.7759 20.2255 23.7616 20.1723C23.7473 20.119 23.7226 20.0691 23.689 20.0254C23.6554 19.9816 23.6135 19.9453 23.5657 19.9177ZM21.4402 8.56581C21.5139 8.56582 21.5862 8.54646 21.6499 8.50968L23.5657 7.40323C23.6622 7.34762 23.7327 7.25595 23.7616 7.14839C23.7905 7.04082 23.7755 6.92618 23.7199 6.82968C23.6643 6.73317 23.5726 6.66271 23.4651 6.63379C23.3575 6.60488 23.2429 6.61987 23.1464 6.67548L21.2299 7.78226C21.1494 7.82821 21.0864 7.89955 21.0507 7.98511C21.0151 8.07067 21.0088 8.16564 21.0328 8.25517C21.0568 8.3447 21.1098 8.42375 21.1836 8.47995C21.2573 8.53615 21.3475 8.56635 21.4402 8.56581ZM12.3077 17.7742C13.3002 17.6703 14.219 17.2025 14.887 16.461C15.5549 15.7195 15.9245 14.757 15.9245 13.759C15.9245 12.7611 15.5549 11.7985 14.887 11.057C14.219 10.3156 13.3002 9.84776 12.3077 9.74387V10.4013C13.1263 10.5033 13.8795 10.9009 14.4256 11.5192C14.9717 12.1376 15.2731 12.9342 15.2731 13.7592C15.2731 14.5842 14.9717 15.3808 14.4256 15.9991C13.8795 16.6175 13.1263 17.0151 12.3077 17.1171V17.7742ZM12.3077 11.2494V16.2687C12.9015 16.1694 13.4409 15.8628 13.83 15.4032C14.219 14.9437 14.4326 14.3611 14.4326 13.759C14.4326 13.1569 14.219 12.5743 13.83 12.1148C13.4409 11.6553 12.9015 11.3486 12.3077 11.2494ZM10.3902 29.0106C10.3906 29.2729 10.4949 29.5244 10.6804 29.7098C10.8659 29.8953 11.1173 29.9997 11.3796 30H12.397C12.6593 29.9997 12.9108 29.8953 13.0962 29.7098C13.2817 29.5244 13.386 29.2729 13.3864 29.0106V28.0645H10.3902V29.0106ZM8.69476 26.061C8.69518 26.3693 8.81789 26.6649 9.03595 26.8829C9.25401 27.1009 9.54964 27.2235 9.85798 27.2239H13.9206C14.2286 27.223 14.5237 27.1002 14.7413 26.8822C14.959 26.6643 15.0814 26.369 15.0819 26.061V25.9497H8.69476V26.061ZM15.3248 23.7529H8.45379C8.35113 23.7529 8.25267 23.7937 8.18007 23.8663C8.10748 23.9389 8.06669 24.0373 8.06669 24.14V24.7226C8.06669 24.8252 8.10748 24.9237 8.18007 24.9963C8.25267 25.0689 8.35113 25.1097 8.45379 25.1097H15.3248C15.4274 25.1097 15.5259 25.0689 15.5985 24.9963C15.6711 24.9237 15.7119 24.8252 15.7119 24.7226V24.14C15.7119 24.0891 15.7018 24.0388 15.6824 23.9918C15.6629 23.9448 15.6343 23.9021 15.5984 23.8662C15.5624 23.8302 15.5197 23.8017 15.4727 23.7823C15.4257 23.7628 15.3756 23.7529 15.3248 23.7529ZM8.45379 22.9142H11.469V5.15774C9.7896 5.2418 8.17426 5.82855 6.83246 6.84189C5.49066 7.85523 4.48432 9.24839 3.94398 10.8407C3.40363 12.4329 3.35423 14.1508 3.80216 15.7715C4.2501 17.3922 5.17471 18.8409 6.45605 19.9297C7.3952 20.7072 8.08277 21.7457 8.43186 22.9139C8.43863 22.9139 8.4454 22.9129 8.45218 22.9129L8.45379 22.9142ZM17.9251 12.3226C17.8379 12.3193 17.754 12.289 17.6849 12.2358C17.6158 12.1826 17.565 12.1092 17.5396 12.0258C17.4297 11.6674 17.2857 11.3203 17.1096 10.9894C17.0685 10.9121 17.0526 10.8238 17.0642 10.7371C17.0758 10.6503 17.1142 10.5693 17.1741 10.5055L18.4967 9.07871C17.9663 8.33388 17.3152 7.68288 16.5702 7.15258L15.1438 8.47516C15.08 8.53508 14.999 8.57351 14.9122 8.58508C14.8254 8.59665 14.7372 8.58077 14.6599 8.53968C14.3288 8.36359 13.9817 8.21959 13.6231 8.10968C13.5395 8.08416 13.4659 8.03312 13.4127 7.96372C13.3595 7.8943 13.3293 7.80999 13.3264 7.72258L13.2519 5.77935C12.9402 5.72667 12.6256 5.6922 12.3099 5.67613V8.90194C13.526 9.00691 14.6586 9.56418 15.4837 10.4636C16.3089 11.3631 16.7667 12.5394 16.7667 13.76C16.7667 14.9806 16.3089 16.1569 15.4837 17.0564C14.6586 17.9558 13.526 18.5131 12.3099 18.6181V21.8439C12.6256 21.8276 12.9401 21.7932 13.2519 21.7406L13.3264 19.7974C13.3293 19.71 13.3595 19.6257 13.4127 19.5563C13.4659 19.4869 13.5395 19.4358 13.6231 19.4103C13.9816 19.3003 14.3288 19.1563 14.6599 18.9803C14.737 18.939 14.8251 18.9228 14.9119 18.934C14.9987 18.9452 15.0797 18.9833 15.1438 19.0429L16.5702 20.3655C17.3151 19.8351 17.9662 19.1841 18.4967 18.4394L17.1741 17.0126C17.1142 16.9488 17.0758 16.8678 17.0642 16.781C17.0526 16.6942 17.0685 16.606 17.1096 16.5287C17.2857 16.1976 17.4297 15.8505 17.5396 15.4919C17.5651 15.4086 17.6159 15.3353 17.685 15.2821C17.7541 15.229 17.838 15.1987 17.9251 15.1955L19.8683 15.121C20.0199 14.2192 20.0199 13.2985 19.8683 12.3968L17.9251 12.3226Z" fill="#EC9C53"/>
</svg>
